<svg version="1.1" xmlns="http://www.w3.org/2000/svg" viewBox="0 0 1614 1005.5595238095236" width="1614" height="1005.5595238095236">
  <!-- svg-source:excalidraw -->
  
  <defs>
    <style class="style-fonts">
      @font-face {
        font-family: "Virgil";
        src: url("https://excalidraw.com/Virgil.woff2");
      }
      @font-face {
        font-family: "Cascadia";
        src: url("https://excalidraw.com/Cascadia.woff2");
      }
    </style>
    
  </defs>
  <rect x="0" y="0" width="1614" height="1005.5595238095236" fill="#ffffff"></rect><g stroke-linecap="round" transform="translate(10 259.7261904761904) rotate(0 290 146.5)"><path d="M32 0 L548 0 L555.5 0.5 L562 2 L567.5 4.5 L572 8 L575.5 12.5 L578 18 L579.5 24.5 L580 32 L580 261 L579.5 268.5 L578 275 L575.5 280.5 L572 285 L567.5 288.5 L562 291 L555.5 292.5 L548 293 L32 293 L24.5 292.5 L18 291 L12.5 288.5 L8 285 L4.5 280.5 L2 275 L0.5 268.5 L0 261 L0.5 24.5 L2 18 L4.5 12.5 L8 8 L12.5 4.5 L18 2 L24.5 0.5 L32 0" stroke="none" stroke-width="0" fill="#b2f2bb"></path><path d="M32 0 M32 0 C236.07 0, 440.14 0, 548 0 M32 0 C184.55 0, 337.11 0, 548 0 M548 0 C569.33 0, 580 10.67, 580 32 M548 0 C569.33 0, 580 10.67, 580 32 M580 32 C580 94.17, 580 156.35, 580 261 M580 32 C580 98.22, 580 164.44, 580 261 M580 261 C580 282.33, 569.33 293, 548 293 M580 261 C580 282.33, 569.33 293, 548 293 M548 293 C360.83 293, 173.67 293, 32 293 M548 293 C404.41 293, 260.82 293, 32 293 M32 293 C10.67 293, 0 282.33, 0 261 M32 293 C10.67 293, 0 282.33, 0 261 M0 261 C0 170.16, 0 79.31, 0 32 M0 261 C0 191.63, 0 122.27, 0 32 M0 32 C0 10.67, 10.67 0, 32 0 M0 32 C0 10.67, 10.67 0, 32 0" stroke="#1e1e1e" stroke-width="1" fill="none"></path></g><g transform="translate(41 373.7261904761904) rotate(0 262.1337890625 62.099999999999994)"><text x="0" y="0" font-family="Helvetica, Segoe UI Emoji" font-size="36px" fill="#1e1e1e" text-anchor="start" style="white-space: pre;" direction="ltr" dominant-baseline="text-before-edge">Radio - Moderatoren - Redaktion</text><text x="0" y="41.4" font-family="Helvetica, Segoe UI Emoji" font-size="36px" fill="#1e1e1e" text-anchor="start" style="white-space: pre;" direction="ltr" dominant-baseline="text-before-edge">- Playlists aka. Songs</text><text x="0" y="82.8" font-family="Helvetica, Segoe UI Emoji" font-size="36px" fill="#1e1e1e" text-anchor="start" style="white-space: pre;" direction="ltr" dominant-baseline="text-before-edge">- News Artikel</text></g><g transform="translate(105 292.7261904761904) rotate(0 182.126953125 20.700000000000003)"><text x="0" y="0" font-family="Helvetica, Segoe UI Emoji" font-size="36px" fill="#1e1e1e" text-anchor="start" style="white-space: pre;" direction="ltr" dominant-baseline="text-before-edge">Interne VerwaltungApp</text></g><g transform="translate(750 349.7261904761904) rotate(0 51.99609375 20.700000000000003)"><text x="0" y="0" font-family="Helvetica, Segoe UI Emoji" font-size="36px" fill="#1e1e1e" text-anchor="start" style="white-space: pre;" direction="ltr" dominant-baseline="text-before-edge">CRUD</text></g><g stroke-linecap="round" transform="translate(1159 247.72619047619042) rotate(0 222.5 291.5)"><path d="M32 0 L413 0 L420.5 0.5 L427 2 L432.5 4.5 L437 8 L440.5 12.5 L443 18 L444.5 24.5 L445 32 L445 551 L444.5 558.5 L443 565 L440.5 570.5 L437 575 L432.5 578.5 L427 581 L420.5 582.5 L413 583 L32 583 L24.5 582.5 L18 581 L12.5 578.5 L8 575 L4.5 570.5 L2 565 L0.5 558.5 L0 551 L0 32 L0.5 24.5 L2 18 L4.5 12.5 L8 8 L12.5 4.5 L18 2 L24.5 0.5 L32 0" stroke="none" stroke-width="0" fill="#a5d8ff"></path><path d="M32 0 M32 0 C149.33 0, 266.66 0, 413 0 M32 0 C125 0, 218.01 0, 413 0 M413 0 C434.33 0, 445 10.67, 445 32 M413 0 C434.33 0, 445 10.67, 445 32 M445 32 C445 149.04, 445 266.08, 445 551 M445 32 C445 154.36, 445 276.72, 445 551 M445 551 C445 572.33, 434.33 583, 413 583 M445 551 C445 572.33, 434.33 583, 413 583 M413 583 C282.06 583, 151.12 583, 32 583 M413 583 C281.92 583, 150.83 583, 32 583 M32 583 C10.67 583, 0 572.33, 0 551 M32 583 C10.67 583, 0 572.33, 0 551 M0 551 C0 438.19, 0 325.39, 0 32 M0 551 C0 413.71, 0 276.43, 0 32 M0 32 C0 10.67, 10.67 0, 32 0 M0 32 C0 10.67, 10.67 0, 32 0" stroke="#1e1e1e" stroke-width="1" fill="none"></path></g><g stroke-linecap="round" transform="translate(1463 337.7261904761904) rotate(0 64.5 41.5)"><path d="M129 41.5 C129 43.31, 128.81 45.13, 128.45 46.92 C128.08 48.71, 127.53 50.5, 126.8 52.24 C126.08 53.99, 125.16 55.71, 124.09 57.38 C123.02 59.05, 121.76 60.69, 120.36 62.25 C118.96 63.81, 117.38 65.33, 115.67 66.76 C113.96 68.2, 112.09 69.57, 110.11 70.84 C108.12 72.12, 105.99 73.32, 103.77 74.42 C101.54 75.52, 99.18 76.54, 96.75 77.44 C94.32 78.34, 91.78 79.15, 89.18 79.84 C86.59 80.53, 83.9 81.12, 81.19 81.59 C78.48 82.05, 75.7 82.41, 72.92 82.64 C70.14 82.88, 67.31 83, 64.5 83 C61.69 83, 58.86 82.88, 56.08 82.64 C53.3 82.41, 50.52 82.05, 47.81 81.59 C45.1 81.12, 42.41 80.53, 39.82 79.84 C37.22 79.15, 34.68 78.34, 32.25 77.44 C29.82 76.54, 27.46 75.52, 25.23 74.42 C23.01 73.32, 20.88 72.12, 18.89 70.84 C16.91 69.57, 15.04 68.2, 13.33 66.76 C11.62 65.33, 10.04 63.81, 8.64 62.25 C7.24 60.69, 5.98 59.05, 4.91 57.38 C3.84 55.71, 2.92 53.99, 2.2 52.24 C1.47 50.5, 0.92 48.71, 0.55 46.92 C0.19 45.13, 0 43.31, 0 41.5 C0 39.69, 0.19 37.87, 0.55 36.08 C0.92 34.29, 1.47 32.5, 2.2 30.76 C2.92 29.01, 3.84 27.29, 4.91 25.62 C5.98 23.95, 7.24 22.31, 8.64 20.75 C10.04 19.19, 11.62 17.67, 13.33 16.24 C15.04 14.8, 16.91 13.43, 18.89 12.16 C20.88 10.88, 23.01 9.68, 25.23 8.58 C27.46 7.48, 29.82 6.46, 32.25 5.56 C34.68 4.66, 37.22 3.85, 39.82 3.16 C42.41 2.47, 45.1 1.88, 47.81 1.41 C50.52 0.95, 53.3 0.59, 56.08 0.36 C58.86 0.12, 61.69 0, 64.5 0 C67.31 0, 70.14 0.12, 72.92 0.36 C75.7 0.59, 78.48 0.95, 81.19 1.41 C83.9 1.88, 86.59 2.47, 89.18 3.16 C91.78 3.85, 94.32 4.66, 96.75 5.56 C99.18 6.46, 101.54 7.48, 103.77 8.58 C105.99 9.68, 108.12 10.88, 110.11 12.16 C112.09 13.43, 113.96 14.8, 115.67 16.24 C117.38 17.67, 118.96 19.19, 120.36 20.75 C121.76 22.31, 123.02 23.95, 124.09 25.62 C125.16 27.29, 126.08 29.01, 126.8 30.76 C127.53 32.5, 128.08 34.29, 128.45 36.08 C128.81 37.87, 128.91 40.6, 129 41.5 C129.09 42.4, 129.09 40.6, 129 41.5" stroke="none" stroke-width="0" fill="#a5d8ff"></path><path d="M129 41.5 C129 43.31, 128.81 45.13, 128.45 46.92 C128.08 48.71, 127.53 50.5, 126.8 52.24 C126.08 53.99, 125.16 55.71, 124.09 57.38 C123.02 59.05, 121.76 60.69, 120.36 62.25 C118.96 63.81, 117.38 65.33, 115.67 66.76 C113.96 68.2, 112.09 69.57, 110.11 70.84 C108.12 72.12, 105.99 73.32, 103.77 74.42 C101.54 75.52, 99.18 76.54, 96.75 77.44 C94.32 78.34, 91.78 79.15, 89.18 79.84 C86.59 80.53, 83.9 81.12, 81.19 81.59 C78.48 82.05, 75.7 82.41, 72.92 82.64 C70.14 82.88, 67.31 83, 64.5 83 C61.69 83, 58.86 82.88, 56.08 82.64 C53.3 82.41, 50.52 82.05, 47.81 81.59 C45.1 81.12, 42.41 80.53, 39.82 79.84 C37.22 79.15, 34.68 78.34, 32.25 77.44 C29.82 76.54, 27.46 75.52, 25.23 74.42 C23.01 73.32, 20.88 72.12, 18.89 70.84 C16.91 69.57, 15.04 68.2, 13.33 66.76 C11.62 65.33, 10.04 63.81, 8.64 62.25 C7.24 60.69, 5.98 59.05, 4.91 57.38 C3.84 55.71, 2.92 53.99, 2.2 52.24 C1.47 50.5, 0.92 48.71, 0.55 46.92 C0.19 45.13, 0 43.31, 0 41.5 C0 39.69, 0.19 37.87, 0.55 36.08 C0.92 34.29, 1.47 32.5, 2.2 30.76 C2.92 29.01, 3.84 27.29, 4.91 25.62 C5.98 23.95, 7.24 22.31, 8.64 20.75 C10.04 19.19, 11.62 17.67, 13.33 16.24 C15.04 14.8, 16.91 13.43, 18.89 12.16 C20.88 10.88, 23.01 9.68, 25.23 8.58 C27.46 7.48, 29.82 6.46, 32.25 5.56 C34.68 4.66, 37.22 3.85, 39.82 3.16 C42.41 2.47, 45.1 1.88, 47.81 1.41 C50.52 0.95, 53.3 0.59, 56.08 0.36 C58.86 0.12, 61.69 0, 64.5 0 C67.31 0, 70.14 0.12, 72.92 0.36 C75.7 0.59, 78.48 0.95, 81.19 1.41 C83.9 1.88, 86.59 2.47, 89.18 3.16 C91.78 3.85, 94.32 4.66, 96.75 5.56 C99.18 6.46, 101.54 7.48, 103.77 8.58 C105.99 9.68, 108.12 10.88, 110.11 12.16 C112.09 13.43, 113.96 14.8, 115.67 16.24 C117.38 17.67, 118.96 19.19, 120.36 20.75 C121.76 22.31, 123.02 23.95, 124.09 25.62 C125.16 27.29, 126.08 29.01, 126.8 30.76 C127.53 32.5, 128.08 34.29, 128.45 36.08 C128.81 37.87, 128.91 40.6, 129 41.5 C129.09 42.4, 129.09 40.6, 129 41.5" stroke="#1e1e1e" stroke-width="1" fill="none"></path></g><g stroke-linecap="round" transform="translate(1461.5 495.2261904761904) rotate(0 64.5 41.5)"><path d="M129 41.5 C129 43.31, 128.81 45.13, 128.45 46.92 C128.08 48.71, 127.53 50.5, 126.8 52.24 C126.08 53.99, 125.16 55.71, 124.09 57.38 C123.02 59.05, 121.76 60.69, 120.36 62.25 C118.96 63.81, 117.38 65.33, 115.67 66.76 C113.96 68.2, 112.09 69.57, 110.11 70.84 C108.12 72.12, 105.99 73.32, 103.77 74.42 C101.54 75.52, 99.18 76.54, 96.75 77.44 C94.32 78.34, 91.78 79.15, 89.18 79.84 C86.59 80.53, 83.9 81.12, 81.19 81.59 C78.48 82.05, 75.7 82.41, 72.92 82.64 C70.14 82.88, 67.31 83, 64.5 83 C61.69 83, 58.86 82.88, 56.08 82.64 C53.3 82.41, 50.52 82.05, 47.81 81.59 C45.1 81.12, 42.41 80.53, 39.82 79.84 C37.22 79.15, 34.68 78.34, 32.25 77.44 C29.82 76.54, 27.46 75.52, 25.23 74.42 C23.01 73.32, 20.88 72.12, 18.89 70.84 C16.91 69.57, 15.04 68.2, 13.33 66.76 C11.62 65.33, 10.04 63.81, 8.64 62.25 C7.24 60.69, 5.98 59.05, 4.91 57.38 C3.84 55.71, 2.92 53.99, 2.2 52.24 C1.47 50.5, 0.92 48.71, 0.55 46.92 C0.19 45.13, 0 43.31, 0 41.5 C0 39.69, 0.19 37.87, 0.55 36.08 C0.92 34.29, 1.47 32.5, 2.2 30.76 C2.92 29.01, 3.84 27.29, 4.91 25.62 C5.98 23.95, 7.24 22.31, 8.64 20.75 C10.04 19.19, 11.62 17.67, 13.33 16.24 C15.04 14.8, 16.91 13.43, 18.89 12.16 C20.88 10.88, 23.01 9.68, 25.23 8.58 C27.46 7.48, 29.82 6.46, 32.25 5.56 C34.68 4.66, 37.22 3.85, 39.82 3.16 C42.41 2.47, 45.1 1.88, 47.81 1.41 C50.52 0.95, 53.3 0.59, 56.08 0.36 C58.86 0.12, 61.69 0, 64.5 0 C67.31 0, 70.14 0.12, 72.92 0.36 C75.7 0.59, 78.48 0.95, 81.19 1.41 C83.9 1.88, 86.59 2.47, 89.18 3.16 C91.78 3.85, 94.32 4.66, 96.75 5.56 C99.18 6.46, 101.54 7.48, 103.77 8.58 C105.99 9.68, 108.12 10.88, 110.11 12.16 C112.09 13.43, 113.96 14.8, 115.67 16.24 C117.38 17.67, 118.96 19.19, 120.36 20.75 C121.76 22.31, 123.02 23.95, 124.09 25.62 C125.16 27.29, 126.08 29.01, 126.8 30.76 C127.53 32.5, 128.08 34.29, 128.45 36.08 C128.81 37.87, 128.91 40.6, 129 41.5 C129.09 42.4, 129.09 40.6, 129 41.5" stroke="none" stroke-width="0" fill="#a5d8ff"></path><path d="M129 41.5 C129 43.31, 128.81 45.13, 128.45 46.92 C128.08 48.71, 127.53 50.5, 126.8 52.24 C126.08 53.99, 125.16 55.71, 124.09 57.38 C123.02 59.05, 121.76 60.69, 120.36 62.25 C118.96 63.81, 117.38 65.33, 115.67 66.76 C113.96 68.2, 112.09 69.57, 110.11 70.84 C108.12 72.12, 105.99 73.32, 103.77 74.42 C101.54 75.52, 99.18 76.54, 96.75 77.44 C94.32 78.34, 91.78 79.15, 89.18 79.84 C86.59 80.53, 83.9 81.12, 81.19 81.59 C78.48 82.05, 75.7 82.41, 72.92 82.64 C70.14 82.88, 67.31 83, 64.5 83 C61.69 83, 58.86 82.88, 56.08 82.64 C53.3 82.41, 50.52 82.05, 47.81 81.59 C45.1 81.12, 42.41 80.53, 39.82 79.84 C37.22 79.15, 34.68 78.34, 32.25 77.44 C29.82 76.54, 27.46 75.52, 25.23 74.42 C23.01 73.32, 20.88 72.12, 18.89 70.84 C16.91 69.57, 15.04 68.2, 13.33 66.76 C11.62 65.33, 10.04 63.81, 8.64 62.25 C7.24 60.69, 5.98 59.05, 4.91 57.38 C3.84 55.71, 2.92 53.99, 2.2 52.24 C1.47 50.5, 0.92 48.71, 0.55 46.92 C0.19 45.13, 0 43.31, 0 41.5 C0 39.69, 0.19 37.87, 0.55 36.08 C0.92 34.29, 1.47 32.5, 2.2 30.76 C2.92 29.01, 3.84 27.29, 4.91 25.62 C5.98 23.95, 7.24 22.31, 8.64 20.75 C10.04 19.19, 11.62 17.67, 13.33 16.24 C15.04 14.8, 16.91 13.43, 18.89 12.16 C20.88 10.88, 23.01 9.68, 25.23 8.58 C27.46 7.48, 29.82 6.46, 32.25 5.56 C34.68 4.66, 37.22 3.85, 39.82 3.16 C42.41 2.47, 45.1 1.88, 47.81 1.41 C50.52 0.95, 53.3 0.59, 56.08 0.36 C58.86 0.12, 61.69 0, 64.5 0 C67.31 0, 70.14 0.12, 72.92 0.36 C75.7 0.59, 78.48 0.95, 81.19 1.41 C83.9 1.88, 86.59 2.47, 89.18 3.16 C91.78 3.85, 94.32 4.66, 96.75 5.56 C99.18 6.46, 101.54 7.48, 103.77 8.58 C105.99 9.68, 108.12 10.88, 110.11 12.16 C112.09 13.43, 113.96 14.8, 115.67 16.24 C117.38 17.67, 118.96 19.19, 120.36 20.75 C121.76 22.31, 123.02 23.95, 124.09 25.62 C125.16 27.29, 126.08 29.01, 126.8 30.76 C127.53 32.5, 128.08 34.29, 128.45 36.08 C128.81 37.87, 128.91 40.6, 129 41.5 C129.09 42.4, 129.09 40.6, 129 41.5" stroke="#1e1e1e" stroke-width="1" fill="none"></path></g><g stroke-linecap="round"><g transform="translate(1461 381.7261904761904) rotate(0 0.5 79)"><path d="M0 0 C0.17 26.33, 0.83 131.67, 1 158 M0 0 C0.17 26.33, 0.83 131.67, 1 158" stroke="#1e1e1e" stroke-width="1" fill="none"></path></g></g><mask></mask><g stroke-linecap="round"><g transform="translate(1593.5 377.7261904761904) rotate(0 -1 81)"><path d="M0 0 C-0.33 27, -1.67 135, -2 162 M0 0 C-0.33 27, -1.67 135, -2 162" stroke="#1e1e1e" stroke-width="1" fill="none"></path></g></g><mask></mask><g transform="translate(1336 290.7261904761904) rotate(0 53.015625 20.700000000000003)"><text x="0" y="0" font-family="Helvetica, Segoe UI Emoji" font-size="36px" fill="#1e1e1e" text-anchor="start" style="white-space: pre;" direction="ltr" dominant-baseline="text-before-edge">Server</text></g><g stroke-linecap="round" transform="translate(1174 311.7261904761904) rotate(0 61 133.5)"><path d="M30.5 0 L98.65 0.48 L104.84 1.91 L110.09 4.29 L114.38 7.63 L117.71 11.91 L120.09 17.16 L121.52 23.35 L122 30.5 L122 236.5 L121.52 243.65 L120.09 249.84 L117.71 255.09 L114.38 259.38 L110.09 262.71 L104.84 265.09 L98.65 266.52 L91.5 267 L23.35 266.52 L17.16 265.09 L11.91 262.71 L7.63 259.38 L4.29 255.09 L1.91 249.84 L0.48 243.65 L0 236.5 L0.48 23.35 L1.91 17.16 L4.29 11.91 L7.63 7.63 L11.91 4.29 L17.16 1.91 L23.35 0.48 L30.5 0" stroke="none" stroke-width="0" fill="#1971c2"></path><path d="M30.5 0 M30.5 0 C48.67 0, 66.84 0, 91.5 0 M30.5 0 C44.16 0, 57.81 0, 91.5 0 M91.5 0 C111.83 0, 122 10.17, 122 30.5 M91.5 0 C111.83 0, 122 10.17, 122 30.5 M122 30.5 C122 104.27, 122 178.03, 122 236.5 M122 30.5 C122 82.53, 122 134.57, 122 236.5 M122 236.5 C122 256.83, 111.83 267, 91.5 267 M122 236.5 C122 256.83, 111.83 267, 91.5 267 M91.5 267 C75.3 267, 59.09 267, 30.5 267 M91.5 267 C78.73 267, 65.95 267, 30.5 267 M30.5 267 C10.17 267, 0 256.83, 0 236.5 M30.5 267 C10.17 267, 0 256.83, 0 236.5 M0 236.5 C0 155.45, 0 74.41, 0 30.5 M0 236.5 C0 177.92, 0 119.35, 0 30.5 M0 30.5 C0 10.17, 10.17 0, 30.5 0 M0 30.5 C0 10.17, 10.17 0, 30.5 0" stroke="#1971c2" stroke-width="1" fill="none"></path></g><g transform="translate(1197 360.7261904761904) rotate(0 37.0107421875 41.400000000000006)"><text x="0" y="0" font-family="Helvetica, Segoe UI Emoji" font-size="36px" fill="#1e1e1e" text-anchor="start" style="white-space: pre;" direction="ltr" dominant-baseline="text-before-edge">Rest</text><text x="0" y="41.4" font-family="Helvetica, Segoe UI Emoji" font-size="36px" fill="#1e1e1e" text-anchor="start" style="white-space: pre;" direction="ltr" dominant-baseline="text-before-edge">API</text></g><g stroke-linecap="round"><g transform="translate(1304 408.2261904761904) rotate(0 76 0)"><path d="M0 0 C25.33 0, 126.67 0, 152 0 M0 0 C25.33 0, 126.67 0, 152 0" stroke="#1e1e1e" stroke-width="1" fill="none"></path></g><g transform="translate(1304 408.2261904761904) rotate(0 76 0)"><path d="M152 0 L138.41 6.34 L138.41 -6.34 L152 0" stroke="none" stroke-width="0" fill="#1e1e1e" fill-rule="evenodd"></path><path d="M152 0 C149.04 1.38, 146.07 2.76, 138.41 6.34 M152 0 C147.95 1.89, 143.9 3.78, 138.41 6.34 M138.41 6.34 C138.41 3.07, 138.41 -0.19, 138.41 -6.34 M138.41 6.34 C138.41 2.38, 138.41 -1.59, 138.41 -6.34 M138.41 -6.34 C141.53 -4.88, 144.66 -3.42, 152 0 M138.41 -6.34 C143.23 -4.09, 148.06 -1.84, 152 0 M152 0 C152 0, 152 0, 152 0 M152 0 C152 0, 152 0, 152 0" stroke="#1e1e1e" stroke-width="1" fill="none"></path></g></g><mask></mask><g stroke-linecap="round"><g transform="translate(1461 439.7261904761904) rotate(0 -80.5 -0.5)"><path d="M0 0 C-26.83 -0.17, -134.17 -0.83, -161 -1 M0 0 C-26.83 -0.17, -134.17 -0.83, -161 -1" stroke="#1e1e1e" stroke-width="1" fill="none"></path></g><g transform="translate(1461 439.7261904761904) rotate(0 -80.5 -0.5)"><path d="M-161 -1 L-147.37 -7.25 L-147.45 5.42 L-161 -1" stroke="none" stroke-width="0" fill="#1e1e1e" fill-rule="evenodd"></path><path d="M-161 -1 C-155.62 -3.47, -150.23 -5.94, -147.37 -7.25 M-161 -1 C-157.09 -2.79, -153.19 -4.58, -147.37 -7.25 M-147.37 -7.25 C-147.39 -2.63, -147.42 1.99, -147.45 5.42 M-147.37 -7.25 C-147.39 -2.65, -147.42 1.94, -147.45 5.42 M-147.45 5.42 C-151.05 3.72, -154.66 2.01, -161 -1 M-147.45 5.42 C-150.68 3.89, -153.92 2.36, -161 -1 M-161 -1 C-161 -1, -161 -1, -161 -1 M-161 -1 C-161 -1, -161 -1, -161 -1" stroke="#1e1e1e" stroke-width="1" fill="none"></path></g></g><mask></mask><g transform="translate(1497.9892578125 447.32619047619045) rotate(0 25.0048828125 20.69999999999999)"><text x="0" y="0" font-family="Helvetica, Segoe UI Emoji" font-size="36px" fill="#1e1e1e" text-anchor="start" style="white-space: pre;" direction="ltr" dominant-baseline="text-before-edge">DB</text></g><g stroke-linecap="round"><g transform="translate(1171.834975369458 443.4789467237675) rotate(0 -287.0238095238095 -2.258485553515868)"><path d="M0 0 C-95.67 -0.75, -478.37 -3.76, -574.05 -4.52 M0 0 C-95.67 -0.75, -478.37 -3.76, -574.05 -4.52" stroke="#1e1e1e" stroke-width="1" fill="none"></path></g><g transform="translate(1171.834975369458 443.4789467237675) rotate(0 -287.0238095238095 -2.258485553515868)"><path d="M-574.05 -4.52 L-560.4 -10.75 L-560.5 1.93 L-574.05 -4.52" stroke="none" stroke-width="0" fill="#1e1e1e" fill-rule="evenodd"></path><path d="M-574.05 -4.52 C-571.28 -5.78, -568.5 -7.05, -560.4 -10.75 M-574.05 -4.52 C-569.73 -6.49, -565.4 -8.47, -560.4 -10.75 M-560.4 -10.75 C-560.43 -7.09, -560.46 -3.44, -560.5 1.93 M-560.4 -10.75 C-560.44 -6.07, -560.48 -1.38, -560.5 1.93 M-560.5 1.93 C-563.58 0.46, -566.66 -1, -574.05 -4.52 M-560.5 1.93 C-565.26 -0.34, -570.02 -2.6, -574.05 -4.52 M-574.05 -4.52 C-574.05 -4.52, -574.05 -4.52, -574.05 -4.52 M-574.05 -4.52 C-574.05 -4.52, -574.05 -4.52, -574.05 -4.52" stroke="#1e1e1e" stroke-width="1" fill="none"></path></g></g><mask></mask><g stroke-linecap="round" transform="translate(17.22222222222217 606.5595238095236) rotate(0 290 194.50000000000006)"><path d="M32 0 L548 0 L555.5 0.5 L562 2 L567.5 4.5 L572 8 L575.5 12.5 L578 18 L579.5 24.5 L580 32 L580 357 L579.5 364.5 L578 371 L575.5 376.5 L572 381 L567.5 384.5 L562 387 L555.5 388.5 L548 389 L32 389 L24.5 388.5 L18 387 L12.5 384.5 L8 381 L4.5 376.5 L2 371 L0.5 364.5 L0 357 L0 32 L0.5 24.5 L2 18 L4.5 12.5 L8 8 L12.5 4.5 L18 2 L24.5 0.5 L32 0" stroke="none" stroke-width="0" fill="#ffec99"></path><path d="M32 0 M32 0 C233.86 0, 435.72 0, 548 0 M32 0 C142.24 0, 252.48 0, 548 0 M548 0 C569.33 0, 580 10.67, 580 32 M548 0 C569.33 0, 580 10.67, 580 32 M580 32 C580 132.9, 580 233.8, 580 357 M580 32 C580 153.94, 580 275.89, 580 357 M580 357 C580 378.33, 569.33 389, 548 389 M580 357 C580 378.33, 569.33 389, 548 389 M548 389 C350.78 389, 153.57 389, 32 389 M548 389 C426.95 389, 305.91 389, 32 389 M32 389 C10.67 389, 0 378.33, 0 357 M32 389 C10.67 389, 0 378.33, 0 357 M0 357 C0 257.62, 0 158.24, 0 32 M0 357 C0 241, 0 125, 0 32 M0 32 C0 10.67, 10.67 0, 32 0 M0 32 C0 10.67, 10.67 0, 32 0" stroke="#1e1e1e" stroke-width="1" fill="none"></path></g><g stroke-linecap="round"><g transform="translate(601.6978653530377 393.47257447277053) rotate(0 283.7454844006568 1.5224629086860375)"><path d="M0 0 C94.58 0.51, 472.91 2.54, 567.49 3.04 M0 0 C94.58 0.51, 472.91 2.54, 567.49 3.04" stroke="#1e1e1e" stroke-width="1" fill="none"></path></g><g transform="translate(601.6978653530377 393.47257447277053) rotate(0 283.7454844006568 1.5224629086860375)"><path d="M567.49 3.04 L553.86 9.31 L553.93 -3.37 L567.49 3.04" stroke="none" stroke-width="0" fill="#1e1e1e" fill-rule="evenodd"></path><path d="M567.49 3.04 C563.44 4.91, 559.38 6.77, 553.86 9.31 M567.49 3.04 C564.52 4.41, 561.55 5.78, 553.86 9.31 M553.86 9.31 C553.88 5.98, 553.9 2.65, 553.93 -3.37 M553.86 9.31 C553.88 6.7, 553.89 4.09, 553.93 -3.37 M553.93 -3.37 C559.15 -0.9, 564.37 1.57, 567.49 3.04 M553.93 -3.37 C556.67 -2.07, 559.42 -0.77, 567.49 3.04 M567.49 3.04 C567.49 3.04, 567.49 3.04, 567.49 3.04 M567.49 3.04 C567.49 3.04, 567.49 3.04, 567.49 3.04" stroke="#1e1e1e" stroke-width="1" fill="none"></path></g></g><mask></mask><g transform="translate(85.29765004960336 659.2999999999997) rotate(0 144.0615234375 41.39999999999998)"><text x="0" y="0" font-family="Helvetica, Segoe UI Emoji" font-size="36px" fill="#1e1e1e" text-anchor="start" style="white-space: pre;" direction="ltr" dominant-baseline="text-before-edge">HipDipDauerwelle</text><text x="0" y="41.4" font-family="Helvetica, Segoe UI Emoji" font-size="36px" fill="#1e1e1e" text-anchor="start" style="white-space: pre;" direction="ltr" dominant-baseline="text-before-edge">(rh-radio)</text></g><g transform="translate(49.290814112103135 817.8999999999999) rotate(0 163.072265625 62.099999999999966)"><text x="0" y="0" font-family="Helvetica, Segoe UI Emoji" font-size="36px" fill="#1e1e1e" text-anchor="start" style="white-space: pre;" direction="ltr" dominant-baseline="text-before-edge">Besucher sehen:</text><text x="0" y="41.4" font-family="Helvetica, Segoe UI Emoji" font-size="36px" fill="#1e1e1e" text-anchor="start" style="white-space: pre;" direction="ltr" dominant-baseline="text-before-edge">- News</text><text x="0" y="82.8" font-family="Helvetica, Segoe UI Emoji" font-size="36px" fill="#1e1e1e" text-anchor="start" style="white-space: pre;" direction="ltr" dominant-baseline="text-before-edge">- Playlist aka Songs.</text></g><g stroke-linecap="round"><g transform="translate(614.5775894374342 699.4101224813405) rotate(0 270.911174983455 -124.05041625183432)"><path d="M0 0 C90.3 -41.35, 451.52 -206.75, 541.82 -248.1 M0 0 C90.3 -41.35, 451.52 -206.75, 541.82 -248.1" stroke="#1e1e1e" stroke-width="1" fill="none"></path></g><g transform="translate(614.5775894374342 699.4101224813405) rotate(0 270.911174983455 -124.05041625183432)"><path d="M541.82 -248.1 L532.1 -236.68 L526.82 -248.2 L541.82 -248.1" stroke="none" stroke-width="0" fill="#1e1e1e" fill-rule="evenodd"></path><path d="M541.82 -248.1 C538.65 -244.37, 535.47 -240.64, 532.1 -236.68 M541.82 -248.1 C538.94 -244.72, 536.06 -241.33, 532.1 -236.68 M532.1 -236.68 C530.9 -239.3, 529.7 -241.92, 526.82 -248.2 M532.1 -236.68 C530.12 -241, 528.14 -245.33, 526.82 -248.2 M526.82 -248.2 C532.33 -248.17, 537.84 -248.13, 541.82 -248.1 M526.82 -248.2 C531.02 -248.18, 535.22 -248.15, 541.82 -248.1 M541.82 -248.1 C541.82 -248.1, 541.82 -248.1, 541.82 -248.1 M541.82 -248.1 C541.82 -248.1, 541.82 -248.1, 541.82 -248.1" stroke="#1e1e1e" stroke-width="1" fill="none"></path></g></g><mask></mask><g transform="translate(777.4285094246034 545.2999999999997) rotate(334.2197202132978 50.009765625 20.69999999999999)"><text x="0" y="0" font-family="Helvetica, Segoe UI Emoji" font-size="36px" fill="#1e1e1e" text-anchor="start" style="white-space: pre;" direction="ltr" dominant-baseline="text-before-edge">READ</text></g><g stroke-linecap="round"><g transform="translate(1156.5416141704302 483.1279364016535) rotate(0 -277.1489711660671 127.33747426542968)"><path d="M0 0 C-92.38 42.45, -461.91 212.23, -554.3 254.67 M0 0 C-92.38 42.45, -461.91 212.23, -554.3 254.67" stroke="#1e1e1e" stroke-width="1" fill="none"></path></g><g transform="translate(1156.5416141704302 483.1279364016535) rotate(0 -277.1489711660671 127.33747426542968)"><path d="M-554.3 254.67 L-544.59 243.24 L-539.3 254.76 L-554.3 254.67" stroke="none" stroke-width="0" fill="#1e1e1e" fill-rule="evenodd"></path><path d="M-554.3 254.67 C-550.59 250.3, -546.88 245.93, -544.59 243.24 M-554.3 254.67 C-551.94 251.9, -549.58 249.12, -544.59 243.24 M-544.59 243.24 C-543.35 245.93, -542.12 248.62, -539.3 254.76 M-544.59 243.24 C-543.22 246.23, -541.84 249.22, -539.3 254.76 M-539.3 254.76 C-544.97 254.73, -550.64 254.7, -554.3 254.67 M-539.3 254.76 C-543.01 254.74, -546.73 254.72, -554.3 254.67 M-554.3 254.67 C-554.3 254.67, -554.3 254.67, -554.3 254.67 M-554.3 254.67 C-554.3 254.67, -554.3 254.67, -554.3 254.67" stroke="#1e1e1e" stroke-width="1" fill="none"></path></g></g><mask></mask><g stroke-linecap="round"><g transform="translate(626.5134281911483 796.0504162518341) rotate(0 268.911174983455 -136.05041625183432)"><path d="M0 0 C89.64 -45.35, 448.19 -226.75, 537.82 -272.1 M0 0 C89.64 -45.35, 448.19 -226.75, 537.82 -272.1" stroke="#1e1e1e" stroke-width="1" fill="none"></path></g><g transform="translate(626.5134281911483 796.0504162518341) rotate(0 268.911174983455 -136.05041625183432)"><path d="M537.82 -272.1 L528.55 -260.31 L522.83 -271.62 L537.82 -272.1" stroke="none" stroke-width="0" fill="#1e1e1e" fill-rule="evenodd"></path><path d="M537.82 -272.1 C535.02 -268.53, 532.21 -264.96, 528.55 -260.31 M537.82 -272.1 C535.35 -268.95, 532.87 -265.8, 528.55 -260.31 M528.55 -260.31 C526.94 -263.5, 525.33 -266.69, 522.83 -271.62 M528.55 -260.31 C526.97 -263.43, 525.39 -266.55, 522.83 -271.62 M522.83 -271.62 C527.39 -271.77, 531.96 -271.91, 537.82 -272.1 M522.83 -271.62 C528.47 -271.8, 534.11 -271.98, 537.82 -272.1 M537.82 -272.1 C537.82 -272.1, 537.82 -272.1, 537.82 -272.1 M537.82 -272.1 C537.82 -272.1, 537.82 -272.1, 537.82 -272.1" stroke="#1e1e1e" stroke-width="1" fill="none"></path></g></g><mask></mask><g transform="translate(724.0366981779734 612.8417488913515) rotate(333.19294676987954 184.4208984375 20.69999999999999)"><text x="0" y="0" font-family="Helvetica, Segoe UI Emoji" font-size="36px" fill="#1e1e1e" text-anchor="start" style="white-space: pre;" direction="ltr" dominant-baseline="text-before-edge">INSERT Werbeanfrage</text></g><g transform="translate(211.42460317460313 10) rotate(0 604.4302368164062 58.70000000000001)"><text x="0" y="0" font-family="Helvetica, Segoe UI Emoji" font-size="102.08695652173915px" fill="#1e1e1e" text-anchor="start" style="white-space: pre;" direction="ltr" dominant-baseline="text-before-edge">Planung: Serveranbindung</text></g></svg>