<svg version="1.1" xmlns="http://www.w3.org/2000/svg" viewBox="0 0 2183.333333333333 1993.6587301587301" width="2183.333333333333" height="1993.6587301587301">
  <!-- svg-source:excalidraw -->
  
  <defs>
    <style class="style-fonts">
      @font-face {
        font-family: "Virgil";
        src: url("https://excalidraw.com/Virgil.woff2");
      }
      @font-face {
        font-family: "Cascadia";
        src: url("https://excalidraw.com/Cascadia.woff2");
      }
    </style>
  </defs>
  <rect x="0" y="0" width="2183.333333333333" height="1993.6587301587301" fill="#ffffff"></rect><g stroke-linecap="round" transform="translate(10.000000000000114 1271.9920634920636) rotate(0 1081.6666666666665 355.83333333333326)"><path d="M33.79 1.09 L2132.53 1.57 L2145.88 1.44 L2150.96 5.21 L2158.65 12.71 L2162.08 16.92 L2164.33 31.29 L2164.6 678.18 L2161.94 693.57 L2156.89 697.32 L2151.19 705.81 L2144.96 708.49 L2132.41 711.11 L32.66 713.56 L18.79 709.21 L12.5 706.2 L5.15 698.75 L0.62 691.96 L-1.03 681.17 L1.67 30.05 L3.24 16.61 L8.46 9.01 L16.07 3.53 L30.44 0.24" stroke="none" stroke-width="0" fill="#ced4da"></path><path d="M32 0 M32 0 C584.91 -5.28, 1136.14 -5.74, 2131.33 0 M32 0 C612.04 -7.95, 1192.73 -7.96, 2131.33 0 M2131.33 0 C2153.61 -0.71, 2165.12 8.81, 2163.33 32 M2131.33 0 C2152.95 2.21, 2161.07 9.27, 2163.33 32 M2163.33 32 C2164.44 186.76, 2164.01 340.06, 2163.33 679.67 M2163.33 32 C2163.46 204.52, 2163.54 376.45, 2163.33 679.67 M2163.33 679.67 C2164.49 702.53, 2151.17 713.58, 2131.33 711.67 M2163.33 679.67 C2163.96 702.49, 2151.01 710.27, 2131.33 711.67 M2131.33 711.67 C1473.49 709.58, 815.23 709.93, 32 711.67 M2131.33 711.67 C1323.88 714.17, 517.51 714.3, 32 711.67 M32 711.67 C11.98 709.72, 0.92 702.89, 0 679.67 M32 711.67 C10.96 710.57, -1.96 701.4, 0 679.67 M0 679.67 C2.07 514.34, 0.96 350.77, 0 32 M0 679.67 C0.39 518.29, 0.12 356.78, 0 32 M0 32 C1.92 11.14, 9.78 -1.15, 32 0 M0 32 C1.18 10.7, 9.06 1.56, 32 0" stroke="#000000" stroke-width="1" fill="none"></path></g><g stroke-linecap="round" transform="translate(1293.3333333333335 203.65873015873058) rotate(0 283.33333333333326 151.66666666666666)"><path d="M33.45 0.88 L535.65 1.06 L542.11 -1.28 L552.85 5.11 L562.13 10.58 L563.01 19.82 L566.14 30.05 L568.05 270.99 L567.98 278.75 L561.71 291.03 L555.83 298.43 L549.6 300.03 L533.71 304.52 L31.97 304.92 L25.8 301.75 L11.97 299.25 L5.65 290.02 L2.53 287.25 L-1.36 269.87 L0.64 33.96 L1.16 19.7 L7.6 7.6 L17.45 1.52 L33.59 -0.98" stroke="none" stroke-width="0" fill="#ced4da"></path><path d="M32 0 M32 0 C222.71 -1.49, 414.32 -0.71, 534.67 0 M32 0 C226.25 0.29, 420.77 -0.32, 534.67 0 M534.67 0 C554.9 -1.19, 567.98 10.45, 566.67 32 M534.67 0 C554.14 -1.74, 565.46 8.94, 566.67 32 M566.67 32 C568.3 117.61, 567.86 201.91, 566.67 271.33 M566.67 32 C564.59 120.35, 565.88 207.21, 566.67 271.33 M566.67 271.33 C565.28 292.87, 556.07 303.56, 534.67 303.33 M566.67 271.33 C565.89 291.62, 553.74 304.07, 534.67 303.33 M534.67 303.33 C347.08 302.75, 160.61 302.97, 32 303.33 M534.67 303.33 C345.65 304.52, 156.39 304.32, 32 303.33 M32 303.33 C11.88 304.46, -1.51 290.87, 0 271.33 M32 303.33 C12.46 301.89, 1.95 291.54, 0 271.33 M0 271.33 C-1.35 220.55, 0.41 169.59, 0 32 M0 271.33 C0.09 183.82, -0.5 96.06, 0 32 M0 32 C0.08 9.56, 12.66 1.8, 32 0 M0 32 C1.71 11.07, 8.66 1.63, 32 0" stroke="#000000" stroke-width="1" fill="none"></path></g><g stroke-linecap="round" transform="translate(42.07936507936506 1350.7222222222217) rotate(0 275.2222222222223 260.5555555555556)"><path d="M33.22 1 L519.48 0.33 L532.91 0.9 L541.71 9.97 L549.62 19 L551.51 31.56 L552.37 490.41 L550.42 502.98 L542.17 511.97 L533.46 520.83 L518.54 520.84 L30.68 523.03 L17 518.12 L6.9 514.46 L2.87 501.96 L-0.88 488.03 L0.62 30.4 L2.21 19.53 L9.63 7.86 L18.55 0.17 L33.72 -1.55" stroke="none" stroke-width="0" fill="#40c057"></path><path d="M32 0 M32 0 C225.8 0.68, 419.03 0.34, 518.44 0 M32 0 C204.26 1.53, 377.52 1.62, 518.44 0 M518.44 0 C540.16 0.78, 550.72 10.08, 550.44 32 M518.44 0 C537.52 1.76, 550.29 8.45, 550.44 32 M550.44 32 C550.12 207.27, 550.86 383.88, 550.44 489.11 M550.44 32 C548.27 202.35, 547.9 372.78, 550.44 489.11 M550.44 489.11 C549.98 509.57, 539.72 522.95, 518.44 521.11 M550.44 489.11 C551.98 510.76, 539.66 519.7, 518.44 521.11 M518.44 521.11 C341.68 522.27, 164.89 523.26, 32 521.11 M518.44 521.11 C369.9 519.96, 221.41 519.89, 32 521.11 M32 521.11 C9.99 519.92, 1.31 510, 0 489.11 M32 521.11 C8.7 520.88, -1.12 510.12, 0 489.11 M0 489.11 C-1.28 364.66, -0.19 240.83, 0 32 M0 489.11 C-1.94 362.63, -2.17 236.09, 0 32 M0 32 C-1.35 9.21, 8.98 -1.64, 32 0 M0 32 C0.11 12.75, 12.84 1.55, 32 0" stroke="#000000" stroke-width="1" fill="none"></path></g><g stroke-linecap="round" transform="translate(187.19047619047615 518.2777777777776) rotate(0 248 200)"><path d="M33.33 -1.83 L463.48 1.18 L479.18 0.85 L487.61 7.23 L494.76 18.8 L497.39 33.59 L496.92 366.21 L493.43 380.94 L489.54 390.77 L476.38 398.46 L463.53 401.61 L30.93 399.75 L16.84 397.35 L7.78 392.91 L2.45 382.05 L-0.33 368.52 L0.35 33.28 L1.38 19.59 L7.6 8.04 L17.71 1.63 L30.26 -1.17" stroke="none" stroke-width="0" fill="#4c6ef5"></path><path d="M32 0 M32 0 C150.64 -0.75, 269.19 -0.94, 464 0 M32 0 C198.86 0.47, 366.41 0.41, 464 0 M464 0 C483.81 -0.73, 497.03 10.39, 496 32 M464 0 C486.86 -1.34, 495.69 9.91, 496 32 M496 32 C497.25 126.24, 496.23 221.84, 496 368 M496 32 C495.11 160.54, 495.38 288.18, 496 368 M496 368 C496.47 387.98, 484.42 400.62, 464 400 M496 368 C495.6 387.56, 486.26 401.95, 464 400 M464 400 C343.77 398.79, 224.52 399, 32 400 M464 400 C320.63 401.92, 178.22 402.49, 32 400 M32 400 C9.1 399.13, -1.12 390.79, 0 368 M32 400 C9.12 398.49, 1.26 389.07, 0 368 M0 368 C-0.32 245.49, 0.65 124.69, 0 32 M0 368 C-1.27 247.22, -1.02 125.1, 0 32 M0 32 C-1.49 9.47, 10.19 1.67, 32 0 M0 32 C-0.89 11.3, 8.5 -1.92, 32 0" stroke="#000000" stroke-width="1" fill="none"></path></g><g stroke-linecap="round" transform="translate(922.1904761904761 551.2777777777776) rotate(0 246 186)"><path d="M30.48 -0.73 L461.03 -0.28 L475.32 0.84 L483.73 7.34 L489.66 18.18 L493.55 33.56 L490.77 340.05 L489.55 355.63 L482.97 364.71 L474.82 371.26 L461.62 371.84 L32.47 370.65 L17.09 370.62 L7.66 362.45 L2.8 355.7 L-0.45 341.79 L-0.79 31.17 L1.36 18.27 L7.77 8.63 L16.33 3.94 L31 -0.89" stroke="none" stroke-width="0" fill="#be4bdb"></path><path d="M32 0 M32 0 C197.07 1.16, 363.8 1.04, 460 0 M32 0 C132.68 0.05, 232.65 -0.21, 460 0 M460 0 C480.18 -0.33, 492.25 11.89, 492 32 M460 0 C482.63 -1.83, 492.02 12.55, 492 32 M492 32 C490.36 136.06, 492.42 240.24, 492 340 M492 32 C489.8 133.36, 489.32 234.44, 492 340 M492 340 C493.44 360.7, 482.39 373.02, 460 372 M492 340 C492.09 361.8, 481.41 374.3, 460 372 M460 372 C348.02 372.56, 237.04 372.08, 32 372 M460 372 C362.17 371.62, 264.42 371.54, 32 372 M32 372 C11.01 370.23, -1.82 360.78, 0 340 M32 372 C11.55 369.8, -0.98 362.82, 0 340 M0 340 C0.27 275.53, 0.52 209.37, 0 32 M0 340 C-2.53 256.18, -2.35 173.47, 0 32 M0 32 C0.13 10.21, 10.58 -1.59, 32 0 M0 32 C0.05 10.89, 12.35 1.41, 32 0" stroke="#000000" stroke-width="1" fill="none"></path></g><g stroke-linecap="round" transform="translate(985.1904761904759 672.9444444444443) rotate(0 177.5 111.5)"><path d="M32.55 -1.88 L321.33 -0.31 L331.66 -1.14 L344.04 5.94 L349.87 13.55 L354.02 18.08 L355.4 32.06 L357 190.21 L356.45 198.77 L349.63 210.99 L342.67 218.08 L335.56 222.6 L322.68 221.95 L31.9 221.25 L24.09 222.84 L10.73 216.68 L3.95 211.27 L0.09 204.15 L1.29 189.28 L0.01 23.48 L1.62 19.93 L7.96 9.51 L17.4 3.82 L32.4 -1.41" stroke="none" stroke-width="0" fill="#15aabf"></path><path d="M32 0 M32 0 C91.35 0.48, 150.44 -0.38, 323 0 M32 0 C120.45 -2.22, 207.56 -0.85, 323 0 M323 0 C342.87 -1.08, 353.86 9.37, 355 32 M323 0 C342.77 -0.13, 357.27 12.91, 355 32 M355 32 C355.43 89.75, 355.56 149.02, 355 191 M355 32 C353.37 65.45, 354.1 99.27, 355 191 M355 191 C354.6 214.19, 342.54 222.1, 323 223 M355 191 C354.33 212.41, 343.8 221.23, 323 223 M323 223 C223.86 221.04, 122.66 221.93, 32 223 M323 223 C211.62 223.48, 100.92 223.5, 32 223 M32 223 C11.3 221.73, 1.49 213.48, 0 191 M32 223 C11.93 223.13, 0.59 212.29, 0 191 M0 191 C0.74 153.5, -1.93 121.21, 0 32 M0 191 C1.69 154.43, 0.46 119.58, 0 32 M0 32 C0.26 10.09, 9.77 0.15, 32 0 M0 32 C-2.29 10.14, 12.2 -1.12, 32 0" stroke="#000000" stroke-width="1" fill="none"></path></g><g transform="translate(338.19047619047615 530.2777777777776) rotate(0 18.5 11.5)"><text x="0" y="18" font-family="Helvetica, Segoe UI Emoji" font-size="20px" fill="#000000" text-anchor="start" style="white-space: pre;" direction="ltr">App</text></g><g transform="translate(927.8571428571429 587.2777777777776) rotate(0 79.5 32)"><text x="79.5" y="25" font-family="Helvetica, Segoe UI Emoji" font-size="28px" fill="#000000" text-anchor="middle" style="white-space: pre;" direction="ltr">Komponente</text><text x="79.5" y="57" font-family="Helvetica, Segoe UI Emoji" font-size="28px" fill="#000000" text-anchor="middle" style="white-space: pre;" direction="ltr">A</text></g><g transform="translate(1019.8571428571427 711.7777777777776) rotate(0 119.5 21)"><text x="0" y="33" font-family="Helvetica, Segoe UI Emoji" font-size="36px" fill="#000000" text-anchor="start" style="white-space: pre;" direction="ltr">Komponente B</text></g><g stroke-linecap="round" transform="translate(532.1904761904761 272.94444444444434) rotate(0 192 76.16666666666666)"><path d="M30.06 -0.4 L350.49 -0.6 L367.87 2.78 L375.78 9.58 L379.2 12.54 L384.4 26.37 L384.4 121.65 L382.92 134.56 L380.32 140.91 L369.5 145.91 L365.88 148.54 L351.3 152.64 L32.49 152.43 L17 151.61 L12.12 148.41 L4.83 138.65 L-1.25 129.8 L2.06 24.72 L1.42 19.05 L9.96 8.27 L16.18 1.08 L31.87 -0.82" stroke="none" stroke-width="0" fill="#7950f2"></path><path d="M32 0 M32 0 C122.14 2.11, 210.86 1.97, 352 0 M32 0 C158.57 -0.57, 284 -1.08, 352 0 M352 0 C372.32 -0.4, 384.83 12.59, 384 32 M352 0 C374.81 -0.25, 382.84 8.5, 384 32 M384 32 C382.72 51.22, 383.62 71.29, 384 120.33 M384 32 C383.8 66.19, 384.8 101.4, 384 120.33 M384 120.33 C383.24 141.1, 372.48 152.19, 352 152.33 M384 120.33 C383.95 142.15, 372.87 152.2, 352 152.33 M352 152.33 C234.52 154.99, 116.31 155.46, 32 152.33 M352 152.33 C288.46 152.73, 223.26 152.39, 32 152.33 M32 152.33 C12.24 153.43, -0.66 142.59, 0 120.33 M32 152.33 C11.22 152.73, 0.73 142.25, 0 120.33 M0 120.33 C1.19 103.54, -0.27 84.69, 0 32 M0 120.33 C0.14 98.74, 0.48 78.72, 0 32 M0 32 C-0.5 11.51, 11.55 1.74, 32 0 M0 32 C1.28 11.5, 12.92 -0.09, 32 0" stroke="#000000" stroke-width="1" fill="none"></path></g><g transform="translate(613.5238095238094 322.11111111111103) rotate(0 119.5 21)"><text x="0" y="33" font-family="Helvetica, Segoe UI Emoji" font-size="36px" fill="#000000" text-anchor="start" style="white-space: pre;" direction="ltr">Datenmanager</text></g><g stroke-linecap="round"><g transform="translate(615.1904761904761 417.27777777777766) rotate(0 -92.80602716905997 50.05386884647422)"><path d="M-0.77 -0.95 C-31.97 15.75, -155.09 83.19, -186.14 100.03 M1.03 1.17 C-30.34 18, -155.16 84.43, -186.64 101.05" stroke="#000000" stroke-width="1" fill="none"></path></g><g transform="translate(615.1904761904761 417.27777777777766) rotate(0 -92.80602716905997 50.05386884647422)"><path d="M-168.12 80.21 C-175.97 87.17, -183.68 94.34, -185.27 99.8 M-167.43 79.25 C-172.82 85.17, -177.78 91.88, -186.68 100.71" stroke="#000000" stroke-width="1" fill="none"></path></g><g transform="translate(615.1904761904761 417.27777777777766) rotate(0 -92.80602716905997 50.05386884647422)"><path d="M-158.51 98.34 C-170.05 98.23, -181.48 98.39, -185.27 99.8 M-157.81 97.38 C-166.08 98.02, -173.85 99.44, -186.68 100.71" stroke="#000000" stroke-width="1" fill="none"></path></g></g><mask></mask><g stroke-linecap="round"><g transform="translate(920.8066378066378 422.8305280090243) rotate(0 57.753735351798355 55.92801971375018)"><path d="M-0.97 1.09 C18.45 19.46, 97.17 91.81, 116.48 109.8 M0.72 0.61 C20.04 19.21, 96.41 93.04, 115.84 111.25" stroke="#000000" stroke-width="1" fill="none"></path></g><g transform="translate(920.8066378066378 422.8305280090243) rotate(0 57.753735351798355 55.92801971375018)"><path d="M90.17 100.2 C96.15 101.36, 102.97 106.63, 116.45 112.87 M88.6 98.29 C96.26 104.14, 106.23 107.18, 116.49 110.65" stroke="#000000" stroke-width="1" fill="none"></path></g><g transform="translate(920.8066378066378 422.8305280090243) rotate(0 57.753735351798355 55.92801971375018)"><path d="M104.33 85.35 C106.07 90.79, 108.7 100.46, 116.45 112.87 M102.76 83.44 C106.05 93.91, 111.53 101.66, 116.49 110.65" stroke="#000000" stroke-width="1" fill="none"></path></g></g><mask></mask><g stroke-linecap="round"><g transform="translate(422.1520553295845 498.66161616161605) rotate(0 65.14421551058774 -35.25175035736141)"><path d="M-0.65 -0.9 C20.68 -13.02, 106.95 -60.08, 128.71 -71.75 M1.21 1.24 C22.84 -10.75, 109.59 -57.82, 130.94 -70.16" stroke="#000000" stroke-width="1" fill="none"></path></g><g transform="translate(422.1520553295845 498.66161616161605) rotate(0 65.14421551058774 -35.25175035736141)"><path d="M109.81 -49.02 C118.44 -55.14, 126.97 -62.36, 132.85 -69.1 M111.68 -47 C115.27 -51.9, 121.37 -57.91, 130.66 -69.54" stroke="#000000" stroke-width="1" fill="none"></path></g><g transform="translate(422.1520553295845 498.66161616161605) rotate(0 65.14421551058774 -35.25175035736141)"><path d="M99.82 -66.94 C112.23 -66.49, 124.4 -67.18, 132.85 -69.1 M101.68 -64.93 C107.54 -65.54, 116.02 -67.26, 130.66 -69.54" stroke="#000000" stroke-width="1" fill="none"></path></g></g><mask></mask><g stroke-linecap="round"><g transform="translate(1008.3934976899734 549.739057239057) rotate(0 -58.76254187153211 -61.120531572567224)"><path d="M1.07 -1.05 C-18.58 -21.44, -98.17 -102.99, -118.02 -123.26 M0.17 1.02 C-19.56 -19.12, -98.83 -101.52, -118.59 -121.9" stroke="#000000" stroke-width="1" fill="none"></path></g><g transform="translate(1008.3934976899734 549.739057239057) rotate(0 -58.76254187153211 -61.120531572567224)"><path d="M-93.38 -107.57 C-99.84 -111.13, -106.6 -114.79, -120.15 -123.39 M-91.86 -109.23 C-100.78 -114.41, -112.69 -118.29, -118.97 -121.49" stroke="#000000" stroke-width="1" fill="none"></path></g><g transform="translate(1008.3934976899734 549.739057239057) rotate(0 -58.76254187153211 -61.120531572567224)"><path d="M-108.14 -93.31 C-110.25 -101.1, -112.77 -108.86, -120.15 -123.39 M-106.62 -94.98 C-109.84 -105.45, -116.16 -114.72, -118.97 -121.49" stroke="#000000" stroke-width="1" fill="none"></path></g></g><mask></mask><g stroke-linecap="round"><g transform="translate(930.8100048100048 366.14726397367025) rotate(0 191.55903810749157 -1.8299264032271605)"><path d="M0.09 -0.8 C64.3 -1.78, 320.27 -4.59, 384.45 -5.05 M-1.33 1.39 C62.81 0.47, 319.18 -2.8, 383.53 -3.96" stroke="#000000" stroke-width="1" fill="none"></path></g><g transform="translate(930.8100048100048 366.14726397367025) rotate(0 191.55903810749157 -1.8299264032271605)"><path d="M354.16 6.84 C360.48 5.53, 369.41 2.05, 383.02 -2.57 M355.4 6.11 C367.36 2.12, 378.25 -1.59, 384.44 -3.97" stroke="#000000" stroke-width="1" fill="none"></path></g><g transform="translate(930.8100048100048 366.14726397367025) rotate(0 191.55903810749157 -1.8299264032271605)"><path d="M353.85 -13.68 C360.38 -10.26, 369.38 -9.01, 383.02 -2.57 M355.09 -14.41 C367.24 -10.41, 378.25 -6.13, 384.44 -3.97" stroke="#000000" stroke-width="1" fill="none"></path></g></g><mask></mask><g stroke-linecap="round" transform="translate(1640.8571428571427 214.27777777777766) rotate(0 78.5 35)"><path d="M55.67 1.3 C66.33 -0.43, 81.15 0.08, 93.06 1.22 C104.96 2.35, 117.5 4.94, 127.11 8.11 C136.72 11.29, 145.79 15.4, 150.74 20.25 C155.68 25.1, 157.78 31.66, 156.77 37.24 C155.75 42.82, 151.23 48.9, 144.67 53.72 C138.1 58.55, 127.79 63.35, 117.4 66.2 C107.01 69.06, 94.51 70.87, 82.34 70.84 C70.18 70.81, 55.52 68.56, 44.4 66.03 C33.29 63.51, 22.73 59.86, 15.65 55.66 C8.57 51.47, 3.73 46.06, 1.92 40.85 C0.11 35.63, 1.23 29.54, 4.81 24.39 C8.4 19.23, 14.16 13.73, 23.43 9.91 C32.71 6.1, 53.45 2.82, 60.43 1.48 C67.42 0.14, 65.01 1.46, 65.35 1.85 M42.75 4.98 C52.35 2.16, 67.58 -0.33, 80.05 -0.49 C92.52 -0.65, 106.67 1.31, 117.56 4.04 C128.44 6.76, 138.72 11.45, 145.36 15.87 C152.01 20.28, 156.67 25.22, 157.45 30.53 C158.23 35.83, 154.67 42.64, 150.06 47.67 C145.45 52.69, 138.92 57.15, 129.81 60.69 C120.7 64.23, 107.23 67.34, 95.4 68.9 C83.57 70.46, 70.45 71.54, 58.84 70.05 C47.23 68.56, 34.92 64.08, 25.71 59.97 C16.51 55.87, 7.83 50.27, 3.6 45.42 C-0.62 40.57, -1.61 35.83, 0.36 30.88 C2.33 25.92, 8.37 20.09, 15.42 15.67 C22.47 11.25, 37.63 6.14, 42.63 4.36 C47.63 2.59, 44.58 4.75, 45.42 5.02" stroke="none" stroke-width="0" fill="#7950f2"></path><path d="M74.48 -0.75 C85.87 -1.77, 99.86 0.11, 110.74 2.5 C121.61 4.9, 132.29 9.2, 139.75 13.65 C147.22 18.1, 153.24 23.73, 155.55 29.2 C157.85 34.68, 157.32 41.46, 153.59 46.49 C149.85 51.52, 141.79 55.6, 133.14 59.37 C124.48 63.15, 113.29 67.34, 101.64 69.14 C90 70.95, 75.25 71.31, 63.25 70.2 C51.24 69.09, 38.9 66.1, 29.6 62.48 C20.29 58.87, 12.48 53.43, 7.43 48.5 C2.38 43.57, -1.45 38.19, -0.71 32.9 C0.04 27.6, 5.4 21.46, 11.9 16.76 C18.4 12.06, 26.76 7.33, 38.29 4.7 C49.82 2.07, 72.8 1.64, 81.08 0.97 C89.36 0.31, 87.93 0.3, 87.99 0.7 M83.08 0.44 C94.47 0.09, 108.37 2.11, 118.83 4.63 C129.28 7.15, 139.52 11.09, 145.82 15.57 C152.12 20.06, 155.78 26.14, 156.61 31.55 C157.45 36.96, 155.81 42.65, 150.83 48.02 C145.86 53.39, 136.66 60.01, 126.75 63.78 C116.84 67.54, 103.13 69.86, 91.36 70.61 C79.59 71.37, 67.74 70.11, 56.12 68.31 C44.49 66.5, 30.54 63.77, 21.6 59.76 C12.67 55.76, 6.05 49.26, 2.51 44.29 C-1.03 39.31, -2.13 34.97, 0.39 29.91 C2.91 24.84, 9.89 18.27, 17.61 13.92 C25.32 9.57, 35.77 6, 46.66 3.81 C57.54 1.62, 76.92 1.13, 82.94 0.77 C88.95 0.41, 82.89 1.24, 82.77 1.63" stroke="#000000" stroke-width="1" fill="none"></path></g><g stroke-linecap="round"><g transform="translate(1642.8571428571427 253.27777777777766) rotate(0 -0.733273274730891 81.11575546516106)"><path d="M-0.52 0.99 C-0.94 27.56, -1.86 133.76, -1.95 160.15 M1.4 0.47 C0.79 27.18, -2.42 135.13, -2.87 161.76" stroke="#000000" stroke-width="1" fill="none"></path></g></g><mask></mask><g stroke-linecap="round" transform="translate(1644.3571428571427 370.27777777777766) rotate(0 78.5 35)"><path d="M108.88 2.27 C120 3.78, 131.76 9.03, 139.49 13.44 C147.22 17.84, 152.93 23.53, 155.27 28.73 C157.61 33.93, 157.01 39.4, 153.52 44.64 C150.03 49.88, 142.67 56.23, 134.35 60.16 C126.02 64.08, 115.01 66.57, 103.57 68.18 C92.12 69.79, 77.75 70.61, 65.68 69.8 C53.61 68.98, 41.03 66.64, 31.16 63.3 C21.29 59.96, 11.8 54.77, 6.47 49.77 C1.15 44.76, -1.52 38.61, -0.79 33.26 C-0.06 27.92, 4.5 22.49, 10.85 17.68 C17.19 12.88, 26.86 7.19, 37.29 4.41 C47.72 1.64, 59.02 0.64, 73.43 1.03 C87.85 1.42, 113.64 4.82, 123.78 6.75 C133.92 8.69, 135.16 12.21, 134.28 12.63 M95.83 1.63 C107.35 2.62, 121.01 5.46, 130.07 9.08 C139.14 12.7, 145.99 18.16, 150.23 23.34 C154.47 28.52, 156.75 35.14, 155.53 40.16 C154.3 45.17, 149.57 49.04, 142.88 53.44 C136.2 57.84, 125.96 63.95, 115.42 66.57 C104.87 69.2, 91.66 69.25, 79.61 69.21 C67.56 69.16, 54.11 68.79, 43.13 66.3 C32.14 63.81, 20.97 58.6, 13.7 54.27 C6.43 49.94, 0.87 45.4, -0.5 40.3 C-1.87 35.2, 1.08 28.98, 5.47 23.65 C9.86 18.33, 16.73 11.92, 25.86 8.35 C35 4.78, 48.58 3.68, 60.28 2.23 C71.99 0.79, 90.28 -0.15, 96.07 -0.31 C101.86 -0.47, 95.22 0.41, 95 1.27" stroke="none" stroke-width="0" fill="#7950f2"></path><path d="M60.13 1.52 C71.26 0.11, 86.62 0.56, 98.34 1.89 C110.07 3.22, 121.38 5.91, 130.47 9.49 C139.57 13.08, 148.54 18.47, 152.91 23.39 C157.29 28.31, 158.6 33.67, 156.74 39 C154.88 44.33, 148.76 50.95, 141.76 55.39 C134.75 59.83, 125.41 63.17, 114.7 65.64 C103.99 68.12, 89.65 70.32, 77.49 70.24 C65.32 70.16, 52.34 67.77, 41.7 65.16 C31.06 62.55, 20.53 59.07, 13.64 54.58 C6.75 50.1, 1.77 43.79, 0.36 38.26 C-1.05 32.73, 0.75 26.2, 5.21 21.39 C9.66 16.58, 15.86 12.85, 27.08 9.4 C38.31 5.94, 62.62 1.98, 72.57 0.65 C82.52 -0.67, 86.43 1.04, 86.78 1.45 M98.08 0.23 C109.34 1.14, 120.9 6.29, 129.81 10.19 C138.72 14.1, 147.12 18.98, 151.53 23.67 C155.94 28.35, 157.85 33.14, 156.27 38.3 C154.69 43.45, 149.02 49.92, 142.04 54.57 C135.07 59.22, 125.16 63.65, 114.41 66.2 C103.66 68.75, 89.77 69.68, 77.55 69.85 C65.33 70.01, 51.86 69.49, 41.09 67.19 C30.33 64.9, 19.84 60.98, 12.96 56.07 C6.09 51.17, 0.93 43.39, -0.18 37.75 C-1.29 32.11, 1.67 27.2, 6.33 22.23 C11 17.26, 18.83 11.35, 27.81 7.95 C36.8 4.55, 48.6 2.82, 60.25 1.83 C71.9 0.84, 91.36 1.93, 97.71 1.99 C104.06 2.04, 98.93 1.72, 98.34 2.17" stroke="#000000" stroke-width="1" fill="none"></path></g><g stroke-linecap="round"><g transform="translate(1800.8571428571427 251.27777777777766) rotate(0 -1.0307491068540457 83.35056668307632)"><path d="M-0.9 0.69 C-1.3 28.31, -2.13 139.23, -2.3 166.69 M0.83 0.01 C0.32 27.2, -2.39 137.19, -2.89 164.93" stroke="#000000" stroke-width="1" fill="none"></path></g></g><mask></mask><g stroke-linecap="round" transform="translate(1330.1904761904764 272.27777777777766) rotate(0 96.99999999999989 75.5)"><path d="M31.74 -1.73 L161.58 0.4 L176.57 3.05 L184.11 9.98 L193.84 17.92 L194.66 30.55 L195.32 124.92 L191.97 133.92 L186.23 141.16 L175.26 149.95 L162.29 151.73 L30.22 152.51 L16.66 150.8 L7.01 141.53 L1.49 134.04 L0.24 117.95 L0.88 24.65 L1.03 16.73 L6.42 8.89 L18.92 2.9 L32.15 -0.97" stroke="none" stroke-width="0" fill="#82c91e"></path><path d="M32 0 M32 0 C82.1 -1.09, 135.03 0.48, 162 0 M32 0 C76.25 0.51, 119.15 0.31, 162 0 M162 0 C181.66 0.07, 194.55 11.55, 194 32 M162 0 C183.48 1.01, 194.2 8.63, 194 32 M194 32 C194.04 55.04, 194.69 80.3, 194 119 M194 32 C195.44 61.99, 194.12 93.33, 194 119 M194 119 C195.89 138.75, 182.37 150.51, 162 151 M194 119 C195.38 138.25, 182.83 152.09, 162 151 M162 151 C129.34 152.36, 96.55 150.31, 32 151 M162 151 C126.46 150.07, 92.64 150.54, 32 151 M32 151 C10.3 150.72, -1.64 138.67, 0 119 M32 151 C12.24 149.62, 0.54 140.76, 0 119 M0 119 C1.16 90.31, -1.84 61.03, 0 32 M0 119 C0.65 86.5, -0.79 52.87, 0 32 M0 32 C-0.07 10.86, 10.17 0.13, 32 0 M0 32 C-1.83 9.32, 10.29 -1.42, 32 0" stroke="#000000" stroke-width="1" fill="none"></path></g><g transform="translate(1357.857142857143 323.11111111111103) rotate(0 61.5 21)"><text x="0" y="33" font-family="Helvetica, Segoe UI Emoji" font-size="36px" fill="#000000" text-anchor="start" style="white-space: pre;" direction="ltr">RestEP</text></g><g stroke-linecap="round"><g transform="translate(1531.1904761904761 329.2753425644383) rotate(0 50.20602422946422 -1.1994909079188503)"><path d="M0.44 1.15 C17.35 0.84, 84.33 -1.09, 101.2 -1.74 M-0.79 0.71 C15.95 0.04, 83.06 -3.15, 100.01 -3.55" stroke="#000000" stroke-width="1" fill="none"></path></g><g transform="translate(1531.1904761904761 329.2753425644383) rotate(0 50.20602422946422 -1.1994909079188503)"><path d="M74.14 6.97 C80.92 4.51, 86.92 0.97, 98.34 -3.48 M72.66 7.84 C80.38 3.91, 90.55 -0.19, 99.95 -4.54" stroke="#000000" stroke-width="1" fill="none"></path></g><g transform="translate(1531.1904761904761 329.2753425644383) rotate(0 50.20602422946422 -1.1994909079188503)"><path d="M73.38 -13.53 C80.39 -10.3, 86.6 -8.14, 98.34 -3.48 M71.89 -12.67 C79.96 -9.89, 90.38 -7.26, 99.95 -4.54" stroke="#000000" stroke-width="1" fill="none"></path></g></g><mask></mask><g stroke-linecap="round"><g transform="translate(1629.8571428571427 373.27777777777766) rotate(0 -44.47928311673604 0.2284065014651988)"><path d="M1.09 -1.09 C-13.84 -1.18, -74.12 0.15, -88.83 0.32 M0.2 0.95 C-15 0.94, -75.45 1.58, -90.05 1.55" stroke="#000000" stroke-width="1" fill="none"></path></g><g transform="translate(1629.8571428571427 373.27777777777766) rotate(0 -44.47928311673604 0.2284065014651988)"><path d="M-63.73 -9.69 C-72.98 -2.94, -83.78 -2.03, -90.53 2.76 M-62.44 -8.42 C-67.37 -6.8, -73.33 -4.94, -90.69 1.21" stroke="#000000" stroke-width="1" fill="none"></path></g><g transform="translate(1629.8571428571427 373.27777777777766) rotate(0 -44.47928311673604 0.2284065014651988)"><path d="M-63.63 10.83 C-73.06 10.15, -83.89 3.64, -90.53 2.76 M-62.33 12.1 C-67.24 9.43, -73.22 6.99, -90.69 1.21" stroke="#000000" stroke-width="1" fill="none"></path></g></g><mask></mask><g stroke-linecap="round"><g transform="translate(1321.3419913419912 305.94939870467294) rotate(0 -195.07325885407386 -0.7876344595738587)"><path d="M0.49 -0.24 C-64.49 -0.38, -325.6 -1.2, -390.63 -1.28 M-0.72 -1.41 C-65.27 -1.38, -323.54 -0.48, -388.52 -0.17" stroke="#000000" stroke-width="1" fill="none"></path></g><g transform="translate(1321.3419913419912 305.94939870467294) rotate(0 -195.07325885407386 -0.7876344595738587)"><path d="M-360.77 -12.44 C-368.39 -8.33, -374.08 -5.9, -388.8 -1.81 M-360.14 -10.36 C-366 -8.36, -371.53 -5.58, -388.04 -1.05" stroke="#000000" stroke-width="1" fill="none"></path></g><g transform="translate(1321.3419913419912 305.94939870467294) rotate(0 -195.07325885407386 -0.7876344595738587)"><path d="M-360.68 8.08 C-368.26 7.35, -373.97 4.94, -388.8 -1.81 M-360.05 10.16 C-366.08 7.71, -371.62 6.03, -388.04 -1.05" stroke="#000000" stroke-width="1" fill="none"></path></g></g><mask></mask><g transform="translate(1692.8571428571427 312.77777777777766) rotate(0 25.5 21)"><text x="0" y="33" font-family="Helvetica, Segoe UI Emoji" font-size="36px" fill="#000000" text-anchor="start" style="white-space: pre;" direction="ltr">DB</text></g><g transform="translate(138.74603174603158 10) rotate(0 971.0000000000001 44.5)"><text x="0" y="71" font-family="Helvetica, Segoe UI Emoji" font-size="77.42857142857144px" fill="#000000" text-anchor="start" style="white-space: pre;" direction="ltr">Flux Konzept - Eigener Datenmanager per RestEndpoint</text></g><g transform="translate(292.3015873015871 586.3333333333333) rotate(0 147.99999999999994 42)"><text x="0" y="33" font-family="Helvetica, Segoe UI Emoji" font-size="36px" fill="#000000" text-anchor="start" style="white-space: pre;" direction="ltr">userState()</text><text x="0" y="75" font-family="Helvetica, Segoe UI Emoji" font-size="36px" fill="#000000" text-anchor="start" style="white-space: pre;" direction="ltr">onClick={setState}</text></g><g transform="translate(794.5238095238096 1093.6666666666665) rotate(0 309 63)"><text x="0" y="101" font-family="Helvetica, Segoe UI Emoji" font-size="109.89162561576349px" fill="#000000" text-anchor="start" style="white-space: pre;" direction="ltr">Flux / Redux</text></g><g stroke-linecap="round" transform="translate(67.27732240046407 1445.9722222222217) rotate(0 248 200)"><path d="M31.87 -0.65 L463.78 1.92 L477.03 1.91 L486.06 7.11 L492.42 17.39 L495.79 30.72 L495.08 367.05 L493.49 380.29 L489.54 392.2 L478.17 396.38 L463.78 398.17 L31.3 400.6 L17.25 398.33 L6.81 393.59 L0.88 382.09 L-0.88 366.99 L1.05 30.86 L3.09 19.52 L9.62 8.1 L18.07 0.89 L31.93 -0.68" stroke="none" stroke-width="0" fill="#4c6ef5"></path><path d="M32 0 M32 0 C157.89 -1.48, 284.9 -0.65, 464 0 M32 0 C200.41 0.85, 368.36 1.18, 464 0 M464 0 C483.82 -1.18, 496.01 11.7, 496 32 M464 0 C486.26 1.56, 497.76 12.37, 496 32 M496 32 C496.56 161.33, 495.99 289.94, 496 368 M496 32 C497.16 128.7, 496.75 224.52, 496 368 M496 368 C494.39 387.52, 484.19 398.37, 464 400 M496 368 C497.46 391.31, 487.62 400.74, 464 400 M464 400 C294.79 402.33, 125.3 401.2, 32 400 M464 400 C377.7 402.28, 290.02 401.59, 32 400 M32 400 C11.16 401.97, -0.94 390.74, 0 368 M32 400 C12.66 401.24, 1.29 389.93, 0 368 M0 368 C0.94 301.19, 0.8 233.95, 0 32 M0 368 C-0.63 287.3, -0.23 205.21, 0 32 M0 32 C-0.17 10.57, 9.57 1.82, 32 0 M0 32 C-0.11 10.46, 8.66 -1.12, 32 0" stroke="#000000" stroke-width="1" fill="none"></path></g><g stroke-linecap="round" transform="translate(122.27732240046441 1617.8611111111109) rotate(0 189.88888888888897 100.44444444444446)"><path d="M31.35 -0.22 L349.69 -0.97 L355.19 -1.44 L366.39 2.92 L374.67 12.29 L376.5 17.08 L378.83 31.49 L378.06 170.43 L379.48 176.56 L373.66 188.17 L365.45 195.69 L362.38 198.14 L348.11 199.7 L33.59 199.77 L24.59 199.51 L11.49 197.44 L3.36 189.48 L2.02 178.01 L0.6 24.57 L0.89 17.93 L7.32 7.88 L17.87 2.77 L30.03 -1.21" stroke="none" stroke-width="0" fill="#be4bdb"></path><path d="M32 0 M32 0 C98.57 -2.84, 166.18 -3.28, 347.78 0 M32 0 C116.82 1.69, 202.83 1.97, 347.78 0 M347.78 0 C370.47 1.53, 381.26 12.34, 379.78 32 M347.78 0 C368.5 0.7, 381.76 11.47, 379.78 32 M379.78 32 C380.95 80.32, 380.23 126.6, 379.78 168.89 M379.78 32 C377.87 65.67, 377.95 101.13, 379.78 168.89 M379.78 168.89 C381.49 192.21, 369.75 202.75, 347.78 200.89 M379.78 168.89 C381.2 191.79, 370.52 202.72, 347.78 200.89 M347.78 200.89 C223.44 199.98, 99.97 199.35, 32 200.89 M347.78 200.89 C276.08 201.11, 203.49 202.05, 32 200.89 M32 200.89 C11.74 202.01, 0.52 188.24, 0 168.89 M32 200.89 C11 199.21, 2.17 191.5, 0 168.89 M0 168.89 C-0.84 117.66, -2.13 65.52, 0 32 M0 168.89 C0.43 126.49, 1.38 85.14, 0 32 M0 32 C-0.18 8.92, 9.7 -0.73, 32 0 M0 32 C-1.26 12.12, 9.68 0.63, 32 0" stroke="#000000" stroke-width="1" fill="none"></path></g><g transform="translate(268.2773224004641 1456.8611111111104) rotate(0 35 22)"><text x="0" y="35" font-family="Helvetica, Segoe UI Emoji" font-size="38.61861861861863px" fill="#000000" text-anchor="start" style="white-space: pre;" direction="ltr">App</text></g><g transform="translate(215.3884335115755 1637.8611111111113) rotate(0 66 11.5)"><text x="0" y="18" font-family="Helvetica, Segoe UI Emoji" font-size="20px" fill="#000000" text-anchor="start" style="white-space: pre;" direction="ltr">Komponente A</text></g><g stroke-linecap="round" transform="translate(863.943989067131 1401.75) rotate(0 154.5 49.49999999999994)"><path d="M22.81 -0.89 L282.67 -0.61 L294.87 0.26 L301.9 5.24 L305.01 7.95 L310.16 19.15 L309.17 72.63 L307.23 83.25 L304.82 89.93 L298.58 95.85 L283.06 100.59 L23.63 99.09 L13.04 96.45 L7.23 91.67 L4.57 90.85 L2.01 80.15 L0.46 17.84 L3.41 8.99 L9.54 3.35 L25.52 -1.97" stroke="none" stroke-width="0" fill="#7950f2"></path><path d="M24.75 0 M24.75 0 C88.29 -0.79, 148.02 0.04, 284.25 0 M24.75 0 C78.38 0.1, 133.23 0.98, 284.25 0 M284.25 0 C301.56 1.36, 310.53 9.73, 309 24.75 M284.25 0 C302.67 -0.61, 309.7 10.23, 309 24.75 M309 24.75 C308.96 42.27, 310.51 58.12, 309 74.25 M309 24.75 C307.95 40.06, 308.18 56.37, 309 74.25 M309 74.25 C310.27 92.47, 302.74 99.64, 284.25 99 M309 74.25 C311.14 92.18, 302.32 100.41, 284.25 99 M284.25 99 C184.11 98.68, 88.61 99.97, 24.75 99 M284.25 99 C194.34 97.98, 103.65 97.76, 24.75 99 M24.75 99 C9.99 100.07, 1.12 91.27, 0 74.25 M24.75 99 C5.97 99.34, -1.68 92.92, 0 74.25 M0 74.25 C-1.58 56.89, 0.89 38, 0 24.75 M0 74.25 C-0.11 55.11, -0.58 36.97, 0 24.75 M0 24.75 C-0.1 8.07, 6.5 -0.97, 24.75 0 M0 24.75 C-0.83 6.99, 9.7 -0.99, 24.75 0" stroke="#000000" stroke-width="1" fill="none"></path></g><g transform="translate(959.1662112893528 1423.6944444444441) rotate(0 43.5 21)"><text x="0" y="33" font-family="Helvetica, Segoe UI Emoji" font-size="36px" fill="#000000" text-anchor="start" style="white-space: pre;" direction="ltr">Store</text></g><g stroke-linecap="round"><g transform="translate(837.4995446226867 1456.083333333333) rotate(0 -119.67731192353608 -0.25697050922497056)"><path d="M-0.13 -0.77 C-39.63 -1.03, -198.39 -1.68, -237.99 -1.96 M-1.65 1.44 C-41.28 1.36, -199.72 -0.2, -239.23 -0.72" stroke="#000000" stroke-width="1" fill="none"></path></g><g transform="translate(837.4995446226867 1456.083333333333) rotate(0 -119.67731192353608 -0.25697050922497056)"><path d="M-212.21 -11.58 C-218.16 -9.01, -225.17 -4.76, -239.03 -0.54 M-211.27 -10.36 C-217.51 -8.58, -223.93 -5.77, -239.79 -0.67" stroke="#000000" stroke-width="1" fill="none"></path></g><g transform="translate(837.4995446226867 1456.083333333333) rotate(0 -119.67731192353608 -0.25697050922497056)"><path d="M-212.43 8.94 C-218.27 6.98, -225.23 6.7, -239.03 -0.54 M-211.5 10.16 C-217.66 7.45, -224.03 5.76, -239.79 -0.67" stroke="#000000" stroke-width="1" fill="none"></path></g></g><mask></mask><g stroke-linecap="round"><g transform="translate(1173.943989067131 1451.5524195143134) rotate(0 58.75483256731536 -0.3045562430758082)"><path d="M-0.31 -1.03 C19.42 -1.21, 98.27 -1.37, 117.81 -1.66 M1.74 1.05 C21.43 1.13, 98.26 0.44, 117.35 -0.06" stroke="#000000" stroke-width="1" fill="none"></path></g><g transform="translate(1173.943989067131 1451.5524195143134) rotate(0 58.75483256731536 -0.3045562430758082)"><path d="M87.61 12.19 C96.7 8.17, 102 5.06, 115.52 -0.76 M88.74 11.44 C98.06 7.11, 107.43 3.03, 117.88 -0.63" stroke="#000000" stroke-width="1" fill="none"></path></g><g transform="translate(1173.943989067131 1451.5524195143134) rotate(0 58.75483256731536 -0.3045562430758082)"><path d="M87.29 -8.33 C96.36 -7.13, 101.75 -5.03, 115.52 -0.76 M88.41 -9.08 C97.76 -6.64, 107.24 -3.94, 117.88 -0.63" stroke="#000000" stroke-width="1" fill="none"></path></g></g><mask></mask><g stroke-linecap="round" transform="translate(1974.277322400464 1317.5277777777776) rotate(0 78.5 35)"><path d="M101.92 0.65 C113.18 1.71, 125.7 7.19, 134.47 11.29 C143.24 15.39, 151.14 20.34, 154.55 25.22 C157.96 30.11, 157.31 35.2, 154.94 40.61 C152.56 46.02, 147.81 53.19, 140.3 57.7 C132.79 62.22, 120.9 65.56, 109.89 67.69 C98.88 69.82, 86.21 70.89, 74.24 70.46 C62.28 70.03, 48.8 68.02, 38.12 65.12 C27.43 62.23, 16.59 57.65, 10.13 53.11 C3.68 48.57, -0.19 43.18, -0.61 37.89 C-1.03 32.59, 2.33 26.5, 7.63 21.32 C12.93 16.13, 21.64 10.11, 31.18 6.76 C40.72 3.41, 50.89 1.49, 64.85 1.2 C78.82 0.9, 104.68 3.88, 114.97 4.99 C125.26 6.1, 127.15 7.5, 126.6 7.87 M57.12 -0.01 C67.58 -1.98, 82.3 -1.28, 94.08 0.22 C105.86 1.72, 118.43 5.39, 127.8 9.01 C137.18 12.63, 145.55 17.28, 150.32 21.95 C155.08 26.61, 157.59 31.81, 156.42 36.99 C155.25 42.17, 149.91 48.52, 143.31 53.02 C136.72 57.52, 127.34 61.24, 116.85 64.01 C106.35 66.77, 92.3 69.26, 80.34 69.6 C68.39 69.95, 56 68.29, 45.11 66.08 C34.21 63.87, 22.1 60.68, 14.98 56.34 C7.85 52, 4.16 45.62, 2.37 40.04 C0.57 34.45, 0.41 28.03, 4.19 22.82 C7.97 17.62, 16.1 12.53, 25.04 8.82 C33.99 5.1, 52.57 1.73, 57.87 0.53 C63.16 -0.66, 56.48 0.92, 56.8 1.66" stroke="none" stroke-width="0" fill="#7950f2"></path><path d="M82.28 -0.87 C93.81 -0.95, 107.6 2.22, 118.03 5.16 C128.46 8.09, 138.5 12.05, 144.86 16.74 C151.22 21.43, 155.37 27.92, 156.21 33.3 C157.04 38.69, 154.71 44.31, 149.87 49.06 C145.02 53.81, 136.45 58.53, 127.14 61.81 C117.83 65.1, 105.78 67.54, 94.01 68.78 C82.23 70.03, 68.1 70.74, 56.5 69.29 C44.9 67.83, 33.18 64.08, 24.41 60.07 C15.63 56.06, 7.73 50.44, 3.85 45.22 C-0.04 40, -0.94 33.99, 1.1 28.72 C3.15 23.46, 8.66 18.06, 16.12 13.65 C23.59 9.24, 33.69 4.62, 45.9 2.26 C58.11 -0.1, 80.83 -0.56, 89.4 -0.5 C97.98 -0.44, 97.47 1.99, 97.34 2.62 M89.5 -0.76 C101.18 -0.45, 113.78 3.23, 123.81 6.71 C133.84 10.19, 143.98 15.07, 149.68 20.12 C155.37 25.17, 158.24 31.5, 157.99 37.03 C157.74 42.55, 154.34 48.67, 148.18 53.29 C142.03 57.91, 131.21 61.9, 121.06 64.75 C110.92 67.59, 99.23 69.88, 87.3 70.36 C75.37 70.84, 60.99 69.66, 49.49 67.64 C37.98 65.63, 26.04 62.42, 18.27 58.26 C10.49 54.11, 5.32 48.24, 2.81 42.7 C0.3 37.16, 0.33 30.49, 3.19 25.03 C6.05 19.57, 11.97 13.92, 19.96 9.93 C27.95 5.95, 39.7 2.55, 51.15 1.11 C62.6 -0.32, 82.05 1.09, 88.68 1.33 C95.32 1.57, 90.87 1.9, 90.97 2.55" stroke="#000000" stroke-width="1" fill="none"></path></g><g stroke-linecap="round"><g transform="translate(1976.277322400464 1356.5277777777776) rotate(0 -0.9320940727275229 79.59547186030073)"><path d="M0.93 0.12 C0.66 26.8, -1.39 132.56, -1.9 159.03 M-0.05 -0.86 C-0.43 26.02, -2.3 133.3, -2.79 160.05" stroke="#000000" stroke-width="1" fill="none"></path></g></g><mask></mask><g stroke-linecap="round" transform="translate(1977.777322400464 1473.5277777777774) rotate(0 78.5 35)"><path d="M114.45 4.76 C125.48 6.89, 136.77 11.16, 143.63 15.29 C150.5 19.43, 154.15 24.09, 155.62 29.56 C157.08 35.02, 156.58 42.7, 152.43 48.06 C148.27 53.41, 139.6 58.1, 130.69 61.66 C121.78 65.22, 110.55 68.15, 98.94 69.43 C87.34 70.71, 73.21 70.64, 61.06 69.33 C48.92 68.02, 35.46 65.02, 26.07 61.58 C16.67 58.14, 8.83 53.63, 4.66 48.69 C0.49 43.76, -0.56 37.62, 1.03 31.98 C2.63 26.34, 7.49 19.36, 14.23 14.84 C20.96 10.31, 30.93 7.16, 41.42 4.83 C51.91 2.5, 62.87 0.47, 77.16 0.86 C91.45 1.25, 117.21 5.21, 127.15 7.17 C137.1 9.13, 137.73 11.96, 136.82 12.63 M75.86 -0.53 C87.27 -0.8, 101.54 2.01, 112.45 4.57 C123.37 7.13, 134.11 10.79, 141.35 14.83 C148.6 18.87, 154.23 23.69, 155.9 28.83 C157.57 33.97, 155.4 40.63, 151.35 45.69 C147.31 50.75, 140.43 55.4, 131.61 59.18 C122.79 62.97, 109.98 66.8, 98.44 68.39 C86.91 69.99, 74.22 69.77, 62.4 68.76 C50.57 67.74, 36.69 65.77, 27.5 62.29 C18.3 58.81, 11.78 53.15, 7.25 47.9 C2.72 42.65, -0.7 36.27, 0.31 30.8 C1.32 25.33, 6.53 19.6, 13.3 15.08 C20.07 10.55, 30.54 6.21, 40.95 3.64 C51.35 1.08, 69.69 0.13, 75.71 -0.31 C81.72 -0.75, 76.94 0.5, 77.01 0.98" stroke="none" stroke-width="0" fill="#7950f2"></path><path d="M47.22 3.13 C57.33 0.81, 72.18 -0.23, 84.26 0.27 C96.35 0.78, 109.45 3.3, 119.71 6.17 C129.97 9.04, 139.7 13, 145.83 17.47 C151.96 21.95, 155.79 27.69, 156.49 33.01 C157.19 38.32, 155.04 44.25, 150.02 49.36 C145 54.47, 136 60.32, 126.34 63.69 C116.69 67.06, 104.16 68.92, 92.08 69.59 C80 70.25, 65.53 69.44, 53.85 67.67 C42.16 65.9, 30.44 62.78, 21.98 58.96 C13.52 55.14, 6.43 50.06, 3.09 44.75 C-0.25 39.44, -0.38 32.54, 1.94 27.09 C4.25 21.64, 8.02 16.15, 16.97 12.04 C25.92 7.94, 47.86 4.32, 55.64 2.44 C63.42 0.55, 63.25 0.48, 63.64 0.73 M65.85 0.4 C77.3 -0.59, 93.12 0.56, 104.93 2.53 C116.74 4.49, 128.32 8.12, 136.71 12.18 C145.09 16.23, 152.22 21.77, 155.24 26.87 C158.26 31.98, 157.37 37.64, 154.84 42.82 C152.32 48, 147.68 53.82, 140.06 57.94 C132.45 62.07, 120.63 65.48, 109.15 67.58 C97.66 69.69, 83.21 71.08, 71.16 70.57 C59.1 70.07, 46.92 67.75, 36.81 64.56 C26.71 61.37, 16.83 56.38, 10.52 51.43 C4.2 46.47, -0.41 40.26, -1.07 34.83 C-1.72 29.39, 1.27 23.31, 6.58 18.8 C11.89 14.29, 20.55 10.57, 30.79 7.75 C41.03 4.93, 61.91 2.76, 68.02 1.89 C74.13 1.01, 67.32 1.99, 67.45 2.48" stroke="#000000" stroke-width="1" fill="none"></path></g><g stroke-linecap="round"><g transform="translate(2134.277322400463 1354.5277777777776) rotate(0 -2.0221759267431025 82.4458401850145)"><path d="M0.1 -0.97 C-0.57 26.49, -2.54 137.01, -3.13 164.9 M-1.3 1.13 C-2.23 28.69, -3.63 138.68, -4.15 165.86" stroke="#000000" stroke-width="1" fill="none"></path></g></g><mask></mask><g transform="translate(1986.2773224004632 1420.4722222222222) rotate(0 55.5 21)"><text x="0" y="33" font-family="Helvetica, Segoe UI Emoji" font-size="36px" fill="#000000" text-anchor="start" style="white-space: pre;" direction="ltr"> {"a":1}</text></g><g transform="translate(193.44398906713116 1657.8611111111109) rotate(0 111.5 42)"><text x="0" y="33" font-family="Helvetica, Segoe UI Emoji" font-size="36px" fill="#000000" text-anchor="start" style="white-space: pre;" direction="ltr">useSelector()</text><text x="0" y="75" font-family="Helvetica, Segoe UI Emoji" font-size="36px" fill="#000000" text-anchor="start" style="white-space: pre;" direction="ltr">useDispatch()</text></g><g stroke-linecap="round"><g transform="translate(691.1904761904761 698.5) rotate(0 110.1053922761696 0.3525828864804339)"><path d="M-0.94 -0.75 C35.49 -0.44, 181.98 0.88, 218.97 0.88 M0.77 1.48 C37.52 1.54, 184.47 -0.56, 221.15 -0.77" stroke="#000000" stroke-width="1" fill="none"></path></g><g transform="translate(691.1904761904761 698.5) rotate(0 110.1053922761696 0.3525828864804339)"><path d="M191.82 8.07 C204.07 8.18, 210.83 2.31, 220.07 -0.49 M192.61 9.26 C198.7 8.07, 205.2 6.46, 220.47 -1.34" stroke="#000000" stroke-width="1" fill="none"></path></g><g transform="translate(691.1904761904761 698.5) rotate(0 110.1053922761696 0.3525828864804339)"><path d="M191.61 -12.45 C203.77 -5.44, 210.6 -4.4, 220.07 -0.49 M192.4 -11.26 C198.38 -8.34, 204.93 -5.84, 220.47 -1.34" stroke="#000000" stroke-width="1" fill="none"></path></g></g><mask></mask><g transform="translate(244.52380952380963 1368.6666666666665) rotate(0 67.5 21)"><text x="0" y="33" font-family="Helvetica, Segoe UI Emoji" font-size="36px" fill="#000000" text-anchor="start" style="white-space: pre;" direction="ltr">Provider</text></g><g stroke-linecap="round" transform="translate(1282.301587301587 1571.833333333333) rotate(0 151.66666666666674 93.33333333333337)"><path d="M30.44 0.54 L271.63 -0.93 L278.12 -0.81 L289.39 3.74 L297.84 13.6 L300.58 18.22 L304.81 33.21 L302.83 155.08 L303.43 161.1 L300.32 175.9 L289.11 180.82 L283.72 184.19 L269.83 185.86 L32.45 187.28 L25.74 186.05 L13.41 183.48 L5.03 172.67 L-1.43 163.55 L-1.08 25.79 L3.25 16.05 L7 8.98 L18.79 2.02 L30.38 -1.25" stroke="none" stroke-width="0" fill="#fd7e14"></path><path d="M32 0 M32 0 C79.41 0.9, 129.75 -0.23, 271.33 0 M32 0 C99.97 1.77, 167.85 1.34, 271.33 0 M271.33 0 C292.05 -1.15, 301.81 11.59, 303.33 32 M271.33 0 C292.24 1.45, 302.58 10.4, 303.33 32 M303.33 32 C304.52 69.95, 302.29 106.8, 303.33 154.67 M303.33 32 C303.32 68.42, 302.4 104.41, 303.33 154.67 M303.33 154.67 C302.3 174.56, 291.11 186.27, 271.33 186.67 M303.33 154.67 C301.78 175.32, 291.88 185.25, 271.33 186.67 M271.33 186.67 C206.3 184.51, 144.75 185.07, 32 186.67 M271.33 186.67 C186.55 184.83, 101.98 184.81, 32 186.67 M32 186.67 C11.25 188.27, -1.05 176.29, 0 154.67 M32 186.67 C8.6 187.57, 1.98 175.24, 0 154.67 M0 154.67 C1.54 120.45, -1.21 86.9, 0 32 M0 154.67 C-0.23 109.65, -1.09 63.51, 0 32 M0 32 C1.71 10.93, 10.54 -1.8, 32 0 M0 32 C-0.7 12.67, 12.65 -1, 32 0" stroke="#000000" stroke-width="1" fill="none"></path></g><g transform="translate(1342.301587301587 1642) rotate(0 86.5 21)"><text x="0" y="33" font-family="Helvetica, Segoe UI Emoji" font-size="36px" fill="#000000" text-anchor="start" style="white-space: pre;" direction="ltr">Dispatcher</text></g><g stroke-linecap="round"><g transform="translate(552.5207348655244 1669.5229249196386) rotate(0 366.5075094632424 0.2660522245513448)"><path d="M-0.64 0.07 C121.74 0.16, 611.21 0.04, 733.65 -0.03 M1.23 -0.94 C123.47 -0.6, 610.49 1.18, 732.5 1.47" stroke="#000000" stroke-width="1" fill="none"></path></g><g transform="translate(552.5207348655244 1669.5229249196386) rotate(0 366.5075094632424 0.2660522245513448)"><path d="M704.39 10.99 C711.2 9.22, 717.76 5.58, 732.27 0.87 M703.4 12.48 C713.36 8.68, 721.26 6.33, 731.68 1.84" stroke="#000000" stroke-width="1" fill="none"></path></g><g transform="translate(552.5207348655244 1669.5229249196386) rotate(0 366.5075094632424 0.2660522245513448)"><path d="M704.45 -9.53 C711.16 -6.21, 717.69 -4.75, 732.27 0.87 M703.47 -8.04 C713.34 -5.86, 721.23 -2.22, 731.68 1.84" stroke="#000000" stroke-width="1" fill="none"></path></g></g><mask></mask><g stroke-linecap="round"><g transform="translate(1547.0452949903001 1500.5650922113368) rotate(0 -64.77661569776797 37.0039289012675)"><path d="M0.31 0.11 C-21.38 12.33, -107.59 61.06, -129.39 73.39 M-0.98 -0.87 C-22.82 11.54, -108.13 62.72, -129.87 74.88" stroke="#000000" stroke-width="1" fill="none"></path></g><g transform="translate(1547.0452949903001 1500.5650922113368) rotate(0 -64.77661569776797 37.0039289012675)"><path d="M-110.48 53.34 C-117.84 59.92, -123.66 67.32, -128.31 76.5 M-111.41 52.2 C-117.42 59.08, -124.07 67.53, -130.33 74.33" stroke="#000000" stroke-width="1" fill="none"></path></g><g transform="translate(1547.0452949903001 1500.5650922113368) rotate(0 -64.77661569776797 37.0039289012675)"><path d="M-100.15 71.08 C-111.3 71.2, -120.9 72.11, -128.31 76.5 M-101.09 69.94 C-110.72 70.69, -120.94 72.99, -130.33 74.33" stroke="#000000" stroke-width="1" fill="none"></path></g></g><mask></mask><g transform="translate(762.5793650793648 1616.3888888888887) rotate(0 135.5 21)"><text x="0" y="33" font-family="Helvetica, Segoe UI Emoji" font-size="36px" fill="#000000" text-anchor="start" style="white-space: pre;" direction="ltr">Änderungsaktion</text></g><g transform="translate(194.19047619047637 1748.6111111111109) rotate(0 139.5 16.5)"><text x="0" y="26" font-family="Helvetica, Segoe UI Emoji" font-size="28.38095238095224px" fill="#000000" text-anchor="start" style="white-space: pre;" direction="ltr">onClick={dispatcher()}</text></g><g transform="translate(183.6904761904765 1492.0555555555552) rotate(0 111.5 42)"><text x="0" y="33" font-family="Helvetica, Segoe UI Emoji" font-size="36px" fill="#000000" text-anchor="start" style="white-space: pre;" direction="ltr">useSelector()</text><text x="0" y="75" font-family="Helvetica, Segoe UI Emoji" font-size="36px" fill="#000000" text-anchor="start" style="white-space: pre;" direction="ltr">useDispatch()</text></g><g transform="translate(179.42857142857213 1579.7222222222222) rotate(0 139.5 16.5)"><text x="0" y="26" font-family="Helvetica, Segoe UI Emoji" font-size="28.38095238095224px" fill="#000000" text-anchor="start" style="white-space: pre;" direction="ltr">onClick={dispatcher()}</text></g><g stroke-linecap="round" transform="translate(1300.0793650793653 1409.6111111111115) rotate(0 246.66666666666652 38.888888888888914)"><path d="M18.13 -1.62 L477.37 0.16 L488.7 6.43 L491.25 11.84 L495.13 20.34 L494.05 61.04 L489.92 70.95 L487.73 75.33 L474.07 79.39 L14.82 76.46 L8.85 76.93 L0.4 65.83 L-1.15 19.53 L1.76 10.99 L3.64 5.6 L10.26 0.17 L17.74 0.38" stroke="none" stroke-width="0" fill="#fa5252"></path><path d="M19.44 0 M19.44 0 C139.33 -0.86, 257.02 -0.86, 473.89 0 M19.44 0 C134.32 0.23, 248.78 0.12, 473.89 0 M473.89 0 C485.9 1.14, 495.22 7.39, 493.33 19.44 M473.89 0 C487.94 1.37, 493.61 7.85, 493.33 19.44 M493.33 19.44 C495.09 27.29, 492.4 38.85, 493.33 58.33 M493.33 19.44 C493.87 29.46, 493.26 41.4, 493.33 58.33 M493.33 58.33 C492.64 71.53, 488.75 75.89, 473.89 77.78 M493.33 58.33 C491.23 71.77, 485.22 75.8, 473.89 77.78 M473.89 77.78 C373.89 79.06, 275.37 78.61, 19.44 77.78 M473.89 77.78 C296.42 78.88, 117.97 78.99, 19.44 77.78 M19.44 77.78 C8.24 77.35, 1.19 72.1, 0 58.33 M19.44 77.78 C8.19 77.88, 0.15 72.44, 0 58.33 M0 58.33 C1.6 48.67, 1.89 38.81, 0 19.44 M0 58.33 C-0.02 48.02, 0.57 40.06, 0 19.44 M0 19.44 C-1.58 7.02, 6.23 -0.46, 19.44 0 M0 19.44 C-1.06 5.08, 5.82 0.75, 19.44 0" stroke="#000000" stroke-width="1" fill="none"></path></g><g transform="translate(1437.8571428571431 1426.4444444444448) rotate(0 111.5 21)"><text x="0" y="33" font-family="Helvetica, Segoe UI Emoji" font-size="36px" fill="#000000" text-anchor="start" style="white-space: pre;" direction="ltr">sliceOfData.js</text></g><g transform="translate(1837.8571428571431 1396.4444444444448) rotate(0 51 49.5)"><text x="0" y="79" font-family="Helvetica, Segoe UI Emoji" font-size="86.23255813953487px" fill="#000000" text-anchor="start" style="white-space: pre;" direction="ltr">==</text></g><g stroke-linecap="round" transform="translate(1676.1904761904761 1565.1666666666665) rotate(0 151.66666666666652 93.33333333333337)"><path d="M30.79 1.98 L271.73 1.02 L280.53 -1.29 L292.59 6.17 L298.85 11.91 L301.57 16.4 L303.78 33.67 L304.16 153.96 L304.56 163.71 L298.37 176.06 L291.48 180.25 L286.73 183.88 L273.33 185.45 L30.48 188.41 L25.12 187.77 L12.38 181.61 L3.87 175.16 L2.24 161.88 L-0.34 26.35 L3.23 19.47 L8.91 9.55 L16.52 3.05 L31.59 -0.05" stroke="none" stroke-width="0" fill="#fd7e14"></path><path d="M32 0 M32 0 C91.25 0.56, 147.01 3.24, 271.33 0 M32 0 C109.83 1.86, 188.24 1.69, 271.33 0 M271.33 0 C294.5 -0.27, 302.56 12.59, 303.33 32 M271.33 0 C293.39 -0.41, 304.77 8.74, 303.33 32 M303.33 32 C304.26 72.93, 305.46 116.91, 303.33 154.67 M303.33 32 C302.45 67, 303.81 102.14, 303.33 154.67 M303.33 154.67 C304.81 175.18, 293.46 185.45, 271.33 186.67 M303.33 154.67 C303.94 176.88, 292.62 187.31, 271.33 186.67 M271.33 186.67 C197.26 183.01, 123.27 183.27, 32 186.67 M271.33 186.67 C220.37 187.93, 170.78 186.99, 32 186.67 M32 186.67 C9.97 185.89, -1.88 174.53, 0 154.67 M32 186.67 C11.67 188.95, -0.74 177.83, 0 154.67 M0 154.67 C-0.19 128.83, 0.77 98.3, 0 32 M0 154.67 C-0.34 126.81, 0.49 101.74, 0 32 M0 32 C-0.03 11.2, 10.83 0.9, 32 0 M0 32 C1.98 10.99, 9.98 -0.19, 32 0" stroke="#000000" stroke-width="1" fill="none"></path></g><g transform="translate(1739.1349206349205 1633.0555555555552) rotate(0 68.5 21)"><text x="0" y="33" font-family="Helvetica, Segoe UI Emoji" font-size="36px" fill="#000000" text-anchor="start" style="white-space: pre;" direction="ltr">Reducer</text></g><g stroke-linecap="round"><g transform="translate(1622.8861685749152 1495.1666666666665) rotate(0 73.23461317794886 32.595069244501815)"><path d="M-0.77 -0.49 C23.91 10.45, 122.81 54.54, 147.24 65.48 M1.02 -1.79 C25.69 9.35, 122.74 55.64, 146.7 66.98" stroke="#000000" stroke-width="1" fill="none"></path></g><g transform="translate(1622.8861685749152 1495.1666666666665) rotate(0 73.23461317794886 32.595069244501815)"><path d="M116.01 65.43 C123.5 63.94, 129.76 66.74, 145.32 67.81 M116.94 65.06 C126.26 64.9, 134.74 64.89, 146.04 67.79" stroke="#000000" stroke-width="1" fill="none"></path></g><g transform="translate(1622.8861685749152 1495.1666666666665) rotate(0 73.23461317794886 32.595069244501815)"><path d="M124.82 46.89 C130.28 49.57, 134.54 56.58, 145.32 67.81 M125.75 46.52 C132.31 52.16, 138.04 57.95, 146.04 67.79" stroke="#000000" stroke-width="1" fill="none"></path></g></g><mask></mask><g stroke-linecap="round"><g transform="translate(1591.190476190477 1669.6111111111109) rotate(0 43.50393261337126 1.1169336726248957)"><path d="M-0.05 0.2 C14.62 0.66, 73.65 1.24, 88.55 1.7 M-1.54 -0.73 C12.9 -0.03, 72.36 2.67, 87.42 2.97" stroke="#000000" stroke-width="1" fill="none"></path></g><g transform="translate(1591.190476190477 1669.6111111111109) rotate(0 43.50393261337126 1.1169336726248957)"><path d="M59.24 11.68 C67.83 9.88, 79.73 6.17, 86.28 3.04 M58.95 13.19 C65.07 10.31, 73.43 7.84, 87.19 2.75" stroke="#000000" stroke-width="1" fill="none"></path></g><g transform="translate(1591.190476190477 1669.6111111111109) rotate(0 43.50393261337126 1.1169336726248957)"><path d="M59.94 -8.83 C68.12 -3.64, 79.78 -0.36, 86.28 3.04 M59.66 -7.32 C65.76 -5.08, 73.95 -2.42, 87.19 2.75" stroke="#000000" stroke-width="1" fill="none"></path></g></g><mask></mask><g transform="translate(1516.666666666667 215.49206349206395) rotate(0 53.5 21)"><text x="0" y="33" font-family="Helvetica, Segoe UI Emoji" font-size="36px" fill="#000000" text-anchor="start" style="white-space: pre;" direction="ltr">Server</text></g><g transform="translate(1018.6666666666667 783.3253968253971) rotate(0 148 42)"><text x="0" y="33" font-family="Helvetica, Segoe UI Emoji" font-size="36px" fill="#000000" text-anchor="start" style="white-space: pre;" direction="ltr">userState()</text><text x="0" y="75" font-family="Helvetica, Segoe UI Emoji" font-size="36px" fill="#000000" text-anchor="start" style="white-space: pre;" direction="ltr">onClick={setState}</text></g><g transform="translate(1100.3333333333335 579.9920634920638) rotate(0 148 42)"><text x="0" y="33" font-family="Helvetica, Segoe UI Emoji" font-size="36px" fill="#000000" text-anchor="start" style="white-space: pre;" direction="ltr">userState()</text><text x="0" y="75" font-family="Helvetica, Segoe UI Emoji" font-size="36px" fill="#000000" text-anchor="start" style="white-space: pre;" direction="ltr">onClick={setState}</text></g><g transform="translate(817.4960317460325 1288.8253968253969) rotate(0 168 41)"><text x="168" y="66" font-family="Helvetica, Segoe UI Emoji" font-size="71.71428571428575px" fill="#000000" text-anchor="middle" style="white-space: pre;" direction="ltr">Client-App</text></g></svg>